<?xml version="1.0" standalone="no"?>
<!DOCTYPE svg PUBLIC "-//W3C//DTD SVG 1.1//EN" "http://www.w3.org/Graphics/SVG/1.1/DTD/svg11.dtd" >
<svg>
<metadata>
Created by FontForge 20110222 at Wed Jan  1 20:42:43 2014
 By Orthosie Webhosting
Brain Flower (c) (Denise Bentulan). 2013. All Rights Reserved
</metadata>
<defs>
<font id="BrainFlowerRegular" horiz-adv-x="1014" >
  <font-face 
    font-family="BrainFlowerRegular"
    font-weight="400"
    font-stretch="normal"
    units-per-em="2048"
    panose-1="2 0 5 0 0 0 0 0 0 0"
    ascent="1638"
    descent="-410"
    x-height="1208"
    cap-height="1360"
    bbox="-342 -418 2048 1716"
    underline-thickness="150"
    underline-position="-142"
    unicode-range="U+0020-F002"
  />
<missing-glyph horiz-adv-x="1024" 
d="M100 0v1434h824v-1434h-824zM150 50h724v1334h-724v-1334zM325 1148q31 28 58 43q53 30 112 30q92 0 148 -47.5t56 -127.5q0 -49 -23 -98.5t-87 -129.5q-63 -80 -99 -132t-36 -99q0 -38 24 -133h-32q-35 97 -35 148q0 76 81.5 218t81.5 217q0 57 -33 90t-91 33
q-38 0 -69 -17q-26 -15 -56 -40v45zM389 334l57 58q11 10 20 10q10 0 22 -11l56 -60q9 -11 9 -20q0 -11 -10 -22l-56 -62q-14 -14 -21 -14q-11 0 -20 10l-61 71q-7 9 -7 18q0 10 11 22z" />
    <glyph glyph-name=".notdef" horiz-adv-x="1024" 
d="M100 0v1434h824v-1434h-824zM150 50h724v1334h-724v-1334zM325 1148q31 28 58 43q53 30 112 30q92 0 148 -47.5t56 -127.5q0 -49 -23 -98.5t-87 -129.5q-63 -80 -99 -132t-36 -99q0 -38 24 -133h-32q-35 97 -35 148q0 76 81.5 218t81.5 217q0 57 -33 90t-91 33
q-38 0 -69 -17q-26 -15 -56 -40v45zM389 334l57 58q11 10 20 10q10 0 22 -11l56 -60q9 -11 9 -20q0 -11 -10 -22l-56 -62q-14 -14 -21 -14q-11 0 -20 10l-61 71q-7 9 -7 18q0 10 11 22z" />
    <glyph glyph-name=".null" horiz-adv-x="0" 
 />
    <glyph glyph-name="nonmarkingreturn" horiz-adv-x="508" 
 />
    <glyph glyph-name="space" unicode=" " horiz-adv-x="508" 
 />
    <glyph glyph-name="space" unicode="&#xa0;" horiz-adv-x="508" 
 />
    <glyph glyph-name="exclam" unicode="!" horiz-adv-x="445" 
d="M199 1434q6 0 16 -16l-4 -20q76 -443 76 -692q0 -82 4 -416l-12 -8h-12q-8 2 -16 20q-4 289 -4 428l-4 48q4 7 4 16q0 112 -76 616q0 24 28 24zM259 90q28 0 28 -28q-7 -48 -36 -48q-28 12 -28 36q0 23 36 40z" />
    <glyph glyph-name="quotedbl" unicode="&#x22;" horiz-adv-x="672" 
d="M376 1526h8q32 0 32 -224v-36q0 -3 4 -24q0 -24 -28 -24q-20 0 -20 252q-4 0 -12 40q0 6 16 16zM244 1510q32 -4 32 -32q-10 -256 -40 -256h-12q-6 0 -12 12q16 76 24 232l-12 20v8q8 16 20 16z" />
    <glyph glyph-name="numbersign" unicode="#" horiz-adv-x="985" 
d="M592 1179h8q6 0 16 -16v-44q0 -30 -16 -192h4q80 12 148 12h8l24 4q17 -5 24 -20v-12q0 -5 -20 -20q-4 0 -32 8h-16q-148 0 -148 -24q0 -10 -52 -308h4q118 28 152 28h16q6 0 16 -16v-8q0 -6 -16 -16h-12q-172 -23 -172 -40q-48 -268 -48 -380v-20q0 -31 -20 -40h-12
q-8 2 -16 20q8 13 8 24v16q0 117 48 380q-188 -44 -188 -48q-32 -222 -32 -312q8 -25 8 -32q-6 -16 -12 -16h-20q-16 7 -16 28q0 80 28 324h-4q-83 -16 -96 -16l-12 16v8q0 20 116 32q8 22 52 328h-8q-89 -20 -132 -20q-12 15 -12 28q0 6 16 16l20 -4q49 8 120 24
q16 276 44 276h12q20 -10 20 -32q-23 0 -32 -220q-4 0 -4 -12h4q171 32 196 40q20 129 20 196v44q0 6 16 16zM304 515h8q180 40 184 44q28 131 56 320q-200 -33 -200 -48q-40 -287 -48 -316z" />
    <glyph glyph-name="dollar" unicode="$" horiz-adv-x="766" 
d="M269 1454h9q43 -18 43 -186h4l28 4h15q40 0 61 -31v-8q0 -7 -19 -18l-47 13h-14q-28 0 -28 -26q-100 0 -137 -253v-71q0 -195 132 -230q20 -8 150 -18q184 -81 184 -217q-19 -117 -66 -168q-63 -68 -136 -115q0 -57 9 -364q-15 -13 -23 -13q-13 0 -24 22l-9 332
q-93 -31 -109 -31h-23q-26 0 -43 27v13q0 7 15 14h4q34 -9 38 -9q122 26 122 57q3 0 19 5l10 -5q107 62 150 155q19 67 19 89q-32 177 -287 177q-165 56 -165 186q-13 25 -14 98v48q0 196 136 319v5q0 114 -23 181q0 7 19 18z" />
    <glyph glyph-name="percent" unicode="%" horiz-adv-x="999" 
d="M661 1288q28 0 28 -28q0 -22 -176 -560q-108 -376 -108 -472q-4 0 -4 -4q4 -8 4 -12q-5 -28 -16 -28h-12q-16 8 -16 20q6 175 188 744q100 280 100 332zM261 1004q96 -17 96 -92q0 -54 -84 -88q-18 -8 -52 -8h-4q-80 0 -80 84q0 60 60 100l28 -4q15 8 36 8zM217 944h-16
l-8 4q-16 -42 -16 -52q0 -40 32 -40h12q96 10 96 64q-16 44 -60 44q-13 0 -40 -20zM693 508q94 0 152 -112v-32q-29 -108 -108 -108h-20q-67 0 -92 64q-8 28 -8 48v28q0 28 8 44q-16 0 -16 12v12q39 44 84 44zM685 468q0 -4 -4 -4l4 -8v-8q-32 -25 -32 -68q9 -84 56 -84h24
q72 19 72 72v4q0 69 -116 96h-4z" />
    <glyph glyph-name="ampersand" unicode="&#x26;" horiz-adv-x="760" 
d="M349 1122q108 -15 108 -96v-12q0 -47 -128 -228v-4q58 -118 176 -272h4q21 196 56 196h12q6 0 16 -16l-24 -52q-28 -152 -28 -184q152 -201 172 -236v-4q0 -6 -16 -16q-23 0 -64 68q-18 18 -104 136q-57 -196 -172 -196q-106 0 -168 92q-24 53 -24 100q0 181 116 384
q-116 168 -116 220v12q0 74 132 100q18 8 52 8zM205 1010q0 -57 100 -184h4q108 160 108 188v4q-8 64 -64 64q-148 -14 -148 -72zM301 742q-96 -196 -96 -348q0 -128 152 -148q99 0 140 208q-87 107 -196 288z" />
    <glyph glyph-name="quotesingle" unicode="'" horiz-adv-x="346" 
d="M189 1367h12q6 0 16 -16q-44 -195 -76 -260l-8 -4h-8q-6 0 -16 16q36 120 68 256z" />
    <glyph glyph-name="parenleft" unicode="(" horiz-adv-x="431" 
d="M228 1413h8q6 0 16 -25v-6q0 -14 -32 -92q-64 -243 -64 -510q0 -280 124 -811q28 -88 128 -264v-6q-8 -28 -16 -31q-29 0 -120 203q-74 193 -144 688q-12 195 -12 227q0 348 96 609z" />
    <glyph glyph-name="parenright" unicode=")" horiz-adv-x="451" 
d="M50 1392h8q8 0 40 -77q72 -109 120 -321q48 -227 48 -404v-72q0 -480 -120 -766l-16 -5q-16 8 -16 15v11q112 312 112 710v107q0 253 -92 557l-100 209v16q0 8 16 20z" />
    <glyph glyph-name="asterisk" unicode="*" horiz-adv-x="766" 
d="M317 1397h8q18 0 40 -104l36 64h20q6 0 12 -12v-4q-36 -79 -36 -104q56 20 132 36h8q6 0 12 -12v-12q0 -13 -148 -52v-4q0 -3 140 -140v-16q0 -6 -12 -12h-4q-19 0 -96 84l-16 12v-4q20 -76 20 -88q-6 -16 -12 -16h-16q-9 0 -40 124h-4q-25 -116 -48 -116h-4q-6 0 -16 16
l36 132h-4q-58 -24 -64 -24t-16 16q0 31 76 48v4q-60 65 -60 84v4q0 6 16 16h8l44 -48v8q-28 94 -28 108z" />
    <glyph glyph-name="plus" unicode="+" horiz-adv-x="821" 
d="M352 1016q19 0 24 -156q149 16 224 16h24q6 0 12 -12v-16q0 -6 -12 -12h-28q-81 0 -216 -16v-4q0 -60 20 -220l-12 -8h-16q-20 0 -32 224h-4q-14 0 -128 -20h-12q-6 0 -12 12v12q0 22 152 36q-4 87 -12 140q0 24 28 24z" />
    <glyph glyph-name="comma" unicode="," horiz-adv-x="493" 
d="M251 40q18 -8 20 -16q-28 -94 -60 -176q-15 -12 -24 -12q-16 6 -16 12v16q28 49 56 164q16 12 24 12z" />
    <glyph glyph-name="hyphen" unicode="-" horiz-adv-x="670" 
d="M371 730q112 -11 112 -28v-12q0 -6 -16 -16q-70 16 -108 16q-34 0 -180 -20l-8 12v16q0 20 148 28q0 4 52 4z" />
    <glyph glyph-name="hyphen" unicode="&#xad;" horiz-adv-x="670" 
d="M371 730q112 -11 112 -28v-12q0 -6 -16 -16q-70 16 -108 16q-34 0 -180 -20l-8 12v16q0 20 148 28q0 4 52 4z" />
    <glyph glyph-name="period" unicode="." horiz-adv-x="397" 
d="M186 98h16q6 0 16 -16v-16q-25 -32 -40 -32q-18 8 -20 16v12q17 31 28 36z" />
    <glyph glyph-name="slash" unicode="/" horiz-adv-x="569" 
d="M524 1236h12q6 0 16 -16v-8q-30 -35 -120 -268q-160 -314 -388 -932q-15 -12 -28 -12q-16 8 -16 24q32 64 240 608q158 330 264 588z" />
    <glyph glyph-name="zero" unicode="0" horiz-adv-x="732" 
d="M335 1331q83 0 164 -112q60 -132 60 -330q11 -52 20 -381q-4 -92 -4 -214q0 -183 -128 -242l-40 -4h-8q-53 0 -132 91q-124 167 -124 862q0 118 96 305q56 21 96 25zM183 998v-55q0 -440 76 -714q59 -121 140 -145h12q101 0 124 196v4q0 102 4 217q0 470 -64 678
q-66 112 -132 112q0 4 -12 4q-92 -37 -92 -80q-56 -137 -56 -217z" />
    <glyph glyph-name="one" unicode="1" horiz-adv-x="575" 
d="M254 1444h12q83 0 112 -680q32 -416 32 -616v-128q-10 -20 -32 -20q0 6 -12 12l4 48v96q-43 1111 -100 1228l-4 16q-69 -43 -96 -108l-20 -4h-4q-6 0 -16 16q11 54 124 140z" />
    <glyph glyph-name="two" unicode="2" horiz-adv-x="670" 
d="M383 1396q126 0 180 -140l4 -28q0 -138 -112 -384q-88 -284 -144 -568q-12 -70 -52 -228h4q196 28 236 28h16q6 0 16 -16v-12q0 -6 -12 -12h-20q-61 0 -268 -36l-12 16v12q0 19 76 364q99 450 192 636q40 125 40 196q0 85 -112 128q-10 0 -32 4q-188 -42 -188 -84
q-21 -22 -36 -64l-8 -4q-21 0 -28 16v16q51 101 128 128q92 28 132 32z" />
    <glyph glyph-name="three" unicode="3" horiz-adv-x="636" 
d="M146 1417h12q4 0 4 -4l8 4q195 0 248 -124q5 -6 8 -40q-29 -264 -100 -348q-12 -22 -12 -36q101 0 172 -200q28 -83 28 -148q0 -324 -160 -436q-53 -52 -120 -60q-7 -4 -16 -4h-4q-6 0 -16 16v8q0 15 96 40q136 117 136 164q44 111 44 268v4q0 120 -88 264
q-46 48 -104 48q-8 -4 -12 -4q-18 8 -20 16v12q95 120 128 320q8 67 8 76q0 70 -120 116q-45 8 -72 8q-2 0 -52 -4l-12 16v12q0 6 16 16z" />
    <glyph glyph-name="four" unicode="4" horiz-adv-x="588" 
d="M209 1341q12 -13 12 -20q0 -43 -44 -524v-28q0 -21 8 -96h4q60 8 100 8h92q0 193 -40 532q8 25 20 28h8q6 0 16 -16v-4q0 -9 -4 -16q14 0 40 -520q16 -2 16 -12v-12l-12 -16q24 -239 40 -620l-20 -12q-24 8 -24 32v8q0 4 4 4l-4 8q0 203 -36 576h-112q-40 0 -104 -16h-8
q-16 0 -24 144q0 56 44 528l-4 28q17 16 32 16z" />
    <glyph glyph-name="five" unicode="5" horiz-adv-x="643" 
d="M278 1362h4q31 0 40 -20v-12l-8 -12q-6 0 -48 4q-117 -12 -156 -20l44 -380h8q201 0 304 -216q48 -131 48 -216q0 -319 -228 -456q-21 -20 -40 -20q-18 7 -28 24v8q0 6 16 16q9 0 16 -4q157 95 200 248q24 70 24 196q0 99 -76 252q-101 132 -268 132q-21 0 -56 392
q-2 23 -12 36v24q0 6 16 16h8l16 -12q138 20 176 20z" />
    <glyph glyph-name="six" unicode="6" horiz-adv-x="691" 
d="M357 1287q6 0 16 -16v-8l-48 -40q-39 -50 -84 -176q-52 -173 -52 -228q39 24 76 24h8q103 0 212 -192q56 -169 56 -324q0 -119 -80 -228q-26 -24 -52 -24h-20q-120 0 -228 380q-16 103 -24 228q0 271 144 552q39 52 76 52zM177 679q0 -175 72 -376q88 -192 148 -192
q70 0 104 208q0 280 -120 416q-62 68 -124 68q-64 0 -80 -124z" />
    <glyph glyph-name="seven" unicode="7" horiz-adv-x="671" 
d="M98 1298q20 -1 20 -8q21 8 84 8h320q40 -3 40 -24q-132 -436 -240 -892l-88 -340q0 -26 -12 -28h-16q-6 0 -12 12v16q0 14 64 252q136 567 240 900q4 7 16 64h-340q-68 -8 -76 -8q-16 7 -16 28v4q0 6 16 16z" />
    <glyph glyph-name="eight" unicode="8" horiz-adv-x="643" 
d="M339 1298q76 0 112 -200v-24q0 -123 -152 -436q-28 -68 -28 -76v-4q244 -267 244 -352v-16q0 -101 -172 -128q-113 0 -196 116q-24 42 -24 84v8q0 96 100 284q-96 140 -96 316q0 212 124 364q39 20 68 56q13 8 20 8zM339 1254q0 -20 -68 -56q-104 -146 -104 -328
q0 -148 72 -268h4q0 10 120 280q48 119 48 196q0 97 -64 176h-8zM247 514q-84 -168 -84 -240v-8q0 -108 148 -160q10 0 32 -4q132 19 132 96q0 83 -224 316h-4z" />
    <glyph glyph-name="nine" unicode="9" horiz-adv-x="670" 
d="M346 1342h4q67 -5 80 -48h8l12 10h12q39 0 60 -938q4 0 12 -196h-4l4 -10v-29q0 -27 4 -76q-8 -22 -16 -24h-12q-20 0 -20 278q-8 112 -24 598h-8q-54 -163 -180 -163q-120 0 -140 187q-4 80 -8 105q0 158 120 277q43 29 96 29zM170 1041q14 -225 52 -225q0 -11 56 -24
q113 0 156 172q16 68 16 105l-12 177h-20q-32 48 -64 48h-4q-117 0 -164 -167q-8 -18 -16 -86z" />
    <glyph glyph-name="colon" unicode=":" horiz-adv-x="557" 
d="M298 969h8q32 -3 32 -28l-4 -8l4 -8q-12 -28 -36 -28h-8q-20 10 -20 32v16q0 6 24 24zM306 477q24 0 24 -28v-16q0 -6 -16 -16h-4q-22 0 -32 24v8q0 28 28 28z" />
    <glyph glyph-name="semicolon" unicode=";" horiz-adv-x="557" 
d="M256 924h4q24 -2 24 -12v-8q0 -39 -36 -44q-16 0 -24 16v16q0 32 32 32zM276 484q6 0 12 -12v-12q-16 -19 -60 -168l-8 -4h-16q-6 0 -12 16q48 171 60 180h24z" />
    <glyph glyph-name="semicolon" unicode="&#x37e;" horiz-adv-x="557" 
d="M256 924h4q24 -2 24 -12v-8q0 -39 -36 -44q-16 0 -24 16v16q0 32 32 32zM276 484q6 0 12 -12v-12q-16 -19 -60 -168l-8 -4h-16q-6 0 -12 16q48 171 60 180h24z" />
    <glyph glyph-name="less" unicode="&#x3c;" 
d="M621 1019h8q6 0 16 -16q0 -28 -52 -52q0 -11 -248 -236q-64 -79 -64 -84q104 -114 248 -200q162 -121 176 -140v-8q0 -6 -16 -16h-12l-380 284q-64 62 -64 80q28 70 204 220q154 153 184 168z" />
    <glyph glyph-name="equal" unicode="=" 
d="M171 815q21 0 84 -8q107 4 304 8q112 -4 236 -4l8 -12v-16l-12 -16q-143 8 -184 8q-263 -4 -380 -4q-72 0 -72 20v8q0 6 16 16zM803 551q52 0 52 -12v-24l-4 -8l-48 4q-53 0 -620 -24q-26 -8 -36 -8h-8q-6 0 -16 16v8q0 25 232 32z" />
    <glyph glyph-name="greater" unicode="&#x3e;" 
d="M331 1135h8q11 -4 28 -44q176 -152 376 -304l8 -16q0 -6 -96 -88q-113 -133 -312 -348h-12q-6 0 -16 16q0 19 112 132q179 213 268 292q-179 131 -368 300q-12 21 -12 48z" />
    <glyph glyph-name="question" unicode="?" horiz-adv-x="664" 
d="M306 1352q78 0 148 -68q56 -71 56 -132v-28q0 -201 -112 -384q-32 -66 -32 -208q8 -66 8 -104v-44q0 -21 -16 -28h-12q-10 0 -12 16q0 18 4 24q0 5 -12 136q0 201 80 308q68 145 68 292q0 85 -80 152q-62 28 -96 28q-128 -35 -128 -112v-36l12 -16v-4q0 -21 -16 -28h-16
q-20 10 -20 32v56q0 102 160 148h16zM346 92h12q5 0 20 -20v-20q0 -32 -32 -32t-36 40q2 13 36 32z" />
    <glyph glyph-name="at" unicode="@" horiz-adv-x="917" 
d="M432 1291h8q119 0 208 -168q52 -92 80 -316q4 -23 4 -64v-12q0 -86 -56 -96h-4q-27 0 -76 168h-4q0 -248 -120 -248q-137 0 -160 288q0 208 108 264q37 12 56 12q29 0 68 -28q24 0 44 -128q56 -193 92 -276h4q8 36 8 52v4q0 183 -92 392q-85 116 -156 116h-16
q-81 0 -172 -140q-48 -87 -52 -200q24 -323 52 -460q93 -240 264 -240q124 30 124 68q17 10 56 144l8 4h8q6 0 16 -16v-12q-31 -140 -88 -184q-74 -44 -128 -44q-205 0 -304 292q-48 356 -48 456q0 192 152 324q61 48 116 48zM352 855q0 -190 92 -252q7 0 24 -8q84 0 84 192
v24q-19 256 -36 256q-4 0 -40 12q-93 0 -120 -160q-4 -41 -4 -64z" />
    <glyph glyph-name="A" unicode="A" horiz-adv-x="739" 
d="M263 1365h4q57 -26 97 -141q111 -344 164 -879q35 -174 35 -305q-5 -13 -27 -13q-16 31 -48 318q-9 31 -40 265l-31 4q-216 -20 -216 -44v-155l-27 -371q9 -14 9 -26q0 -7 -18 -18q-35 0 -35 44q31 422 31 508q-4 55 -4 111q2 288 48 609q19 93 58 93zM263 1312
q-58 -224 -58 -579q-4 0 -4 -97v-13q126 35 243 35v5q0 122 -133 578q-29 63 -48 71z" />
    <glyph glyph-name="B" unicode="B" horiz-adv-x="599" 
d="M248 1456q124 0 152 -260v-76q-20 -140 -128 -300q-3 -1 -24 -28v-4q81 -30 132 -116q53 -79 72 -244q0 -208 -88 -352q-57 -63 -112 -76h-8q-56 0 -56 136q-48 689 -48 1060q-8 108 -24 204q67 56 132 56zM160 1380q32 -249 32 -712q16 -188 40 -612l16 -16
q83 34 116 120q48 134 48 268q-32 192 -52 192q-27 78 -120 132q-34 0 -48 24v12q129 145 168 324v64q-20 240 -112 240q-50 0 -88 -36z" />
    <glyph glyph-name="C" unicode="C" horiz-adv-x="636" 
d="M338 1356h28q72 -13 72 -52q0 -6 -16 -16h-16q-26 32 -56 32q-100 -35 -100 -64q-80 -152 -80 -416v-68q0 -178 48 -428q29 -183 80 -248q62 -54 108 -56q59 0 128 88h12q6 0 12 -12v-8q0 -36 -88 -92q-37 -16 -68 -16h-4q-59 7 -124 64q-71 56 -124 456q-20 86 -20 284
v24q7 405 132 500q59 28 76 28z" />
    <glyph glyph-name="D" unicode="D" horiz-adv-x="612" 
d="M139 1388h24q19 -20 96 -44q114 -71 160 -200q40 -134 40 -212v-120q0 -16 4 -32q-27 -395 -72 -492q0 -44 -84 -212q-52 -76 -64 -76q-28 6 -28 16v16q20 31 20 56q-8 16 -8 24q4 12 8 12q-4 52 -4 84q0 992 -108 1156v8q0 6 16 16zM187 1328v-4q84 -258 84 -1112v-16
q4 -80 4 -88q68 102 116 344q20 132 32 324q0 314 -72 416q-44 92 -164 136z" />
    <glyph glyph-name="E" unicode="E" horiz-adv-x="575" 
d="M195 1392q41 -16 92 -16q80 4 108 4l8 -12v-16q0 -6 -12 -12q-22 0 -112 -4l-48 4q12 -77 12 -220q-24 -349 -24 -412q0 -10 168 -24l12 -16v-8q-2 -8 -20 -16q-63 12 -164 12q-24 -390 -24 -536v-72q1 -8 8 -8h4l152 16v-4l8 4h16q6 0 16 -16v-8q0 -6 -16 -16h-40
l-124 -16q-8 4 -12 4l-8 -4q-41 0 -44 48v68q0 168 52 1004v16q0 186 -24 240q0 6 16 16z" />
    <glyph glyph-name="F" unicode="F" horiz-adv-x="561" 
d="M195 1420q8 0 56 -28q168 -15 168 -28q4 -7 4 -16q0 -6 -16 -16q-134 16 -188 28q8 -58 8 -68q0 -26 -4 -80q12 -290 12 -496v-16q4 -12 24 -12h92q14 0 36 4q16 -6 16 -12v-16q0 -12 -36 -16q-8 0 -8 4l-28 -4h-68l-28 4q4 -367 4 -500q0 -36 4 -140l-20 -12l-20 12
l-8 528q4 22 4 36q-4 35 -4 44q0 31 4 112q-12 410 -16 472q4 29 4 76q0 48 -16 100q11 35 24 40z" />
    <glyph glyph-name="G" unicode="G" horiz-adv-x="732" 
d="M336 1312h8q76 0 120 -56v-8q0 -6 -16 -16q-8 0 -52 28q-26 12 -56 12h-16q-120 -29 -120 -684q0 -309 72 -472q23 -48 92 -76h16q72 14 72 60q14 0 40 240v196l-4 20q-4 0 -4 -4q-160 12 -160 24l-4 20v4q0 6 12 12h12q13 -10 172 -24q16 -16 16 -76v-100q0 -23 -4 -64
q4 -8 4 -12q-27 -316 -92 -316q0 -8 -60 -20h-16q-65 15 -116 76q-88 167 -88 516q0 659 132 716z" />
    <glyph glyph-name="H" unicode="H" horiz-adv-x="599" 
d="M353 1406h9q16 0 25 -52q-4 -104 -4 -159q0 -406 43 -799q22 -271 43 -370v-5q0 -6 -13 -12h-13q-34 0 -56 356q-21 199 -21 250q-4 0 -4 4q-80 -4 -116 -4h-43q-9 -262 -9 -348q0 -111 9 -254l-18 -13q-30 0 -30 39q0 46 -4 249q13 452 34 821v13q0 27 -4 65q4 17 4 30
l-4 43q4 41 4 82q0 5 -4 43l17 12h13q13 0 17 -47q-4 -75 -4 -94q0 -53 4 -198q-21 -304 -21 -400h64q28 0 86 4v17q-17 214 -17 521q0 35 4 154q-8 20 -8 39z" />
    <glyph glyph-name="I" unicode="I" horiz-adv-x="424" 
d="M213 1360h8q28 0 28 -212v-52q0 -78 -24 -404q0 -16 4 -32q-4 -209 -4 -332v-260q0 -8 8 -40q-5 -28 -16 -28h-16q-16 0 -16 108q0 694 24 956v112q0 93 -12 168q0 6 16 16z" />
    <glyph glyph-name="J" unicode="J" horiz-adv-x="486" 
d="M283 1324q11 0 24 -8q0 -2 -4 -52q12 -149 12 -704v-28q0 -39 8 -256q-15 -276 -120 -276h-16q-108 27 -108 68q-20 11 -24 188q13 12 20 12q20 -6 20 -28q0 -188 60 -188q21 -12 40 -12h4q68 0 84 228v20q-8 210 -8 252v48q0 221 -4 572q-8 54 -8 116v28q0 5 20 20z" />
    <glyph glyph-name="K" unicode="K" horiz-adv-x="629" 
d="M396 1424q22 0 28 -16v-20q0 -176 -80 -468q-16 -77 -68 -272q59 0 200 -380q33 -100 56 -244v-12q0 -6 -12 -12h-12q-20 10 -20 32v4q0 4 4 4q-52 241 -112 368q-88 208 -136 208l36 -608l-12 -8h-16q-5 0 -20 20v4q0 11 8 24q-37 651 -68 936q-56 318 -56 404v12
q0 6 16 16h8q6 0 16 -16v-20q12 -115 72 -540q12 -138 12 -160h4q140 541 140 660v40q0 4 -4 32z" />
    <glyph glyph-name="L" unicode="L" horiz-adv-x="575" 
d="M165 1436h4q6 0 16 -16q0 -20 -8 -20l4 -8q28 -436 28 -736q12 -97 12 -268v-348h216q6 0 12 -12v-12q0 -16 -68 -16h-184q-6 0 -16 16v24q0 28 4 28l-4 48v292q-16 527 -32 876l-12 132q6 20 28 20z" />
    <glyph glyph-name="M" unicode="M" horiz-adv-x="725" 
d="M169 1408h16q11 -4 148 -280q44 -123 80 -256h8v4q0 25 64 428q0 80 24 88h8q36 0 36 -384q0 -312 4 -408q-4 -33 -4 -220q0 -18 4 -52q0 -4 -4 -12q4 -89 4 -144v-108q0 -17 4 -44q-8 -18 -16 -20q-20 0 -32 24q4 40 4 60v196l-4 24l4 8q0 22 -4 76q0 113 4 200
q-4 232 -4 468v84l-4 40h-4q0 -22 -40 -268l-24 -208l-8 -4h-16q-14 0 -44 180q-65 225 -160 400h-4q28 -250 52 -720q-4 -80 -4 -140v-184q0 -75 -4 -220l-12 -8h-12q-9 0 -16 28q4 101 4 148v176q0 90 4 208q-24 483 -64 832z" />
    <glyph glyph-name="N" unicode="N" horiz-adv-x="698" 
d="M408 1364h12l16 -16q-8 -44 -8 -100q0 -102 88 -752l36 -408q-6 -20 -28 -20q-20 0 -76 284q-36 130 -140 564q-60 172 -88 304h-4l4 -48q0 -80 -16 -488q8 -367 32 -660v-8q-6 -16 -28 -16l-16 12l4 36q-24 261 -32 632q16 398 16 480q0 19 -4 92q4 8 4 12q-4 16 -4 32
q0 64 20 64q37 0 60 -132q136 -450 208 -788q24 -88 24 -96h4q-20 193 -92 752q-8 56 -12 156q4 77 4 100z" />
    <glyph glyph-name="O" unicode="O" horiz-adv-x="622" 
d="M304 1308h32q30 0 72 -132q40 -296 40 -592q0 -462 -56 -548q-31 -36 -56 -36h-16q-109 0 -140 348q-8 133 -16 380v76q0 244 76 432q-4 7 -4 16zM200 796q13 -407 32 -556q33 -200 96 -200q80 0 80 536v8q0 343 -44 604q-32 80 -44 80h-4q-72 -46 -108 -356z" />
    <glyph glyph-name="P" unicode="P" horiz-adv-x="555" 
d="M187 1404q187 0 256 -172q12 -39 16 -92q0 -250 -88 -548q-41 -71 -116 -108q-48 -3 -48 -12v-4q0 -53 4 -88q-4 -35 -4 -40q12 -226 12 -260q12 -2 12 -32v-12q-12 -31 -24 -36h-8q-6 0 -16 16v28q0 4 4 4q-7 39 -12 104q0 4 4 4l-12 168q4 40 4 60q-4 73 -4 92
q-16 8 -16 20q4 16 16 16q-8 106 -8 128l20 728q-8 0 -8 8v12q0 6 16 16zM219 1364l-20 -724q4 -84 4 -116l8 -4q46 0 92 48q69 44 112 492q4 73 4 96q0 104 -120 188q-35 12 -80 20z" />
    <glyph glyph-name="Q" unicode="Q" horiz-adv-x="692" 
d="M327 1400q75 0 116 -220q68 -219 68 -596v-204q0 -65 -24 -180q108 -167 108 -184v-4q0 -6 -12 -12h-12q-29 21 -96 152h-8q-27 -56 -76 -56q-174 0 -220 384q-20 187 -20 464q0 353 84 420q67 36 92 36zM191 944q0 -660 116 -760q24 -48 84 -48q31 0 52 60
q-116 174 -116 184v4q0 6 16 16h8q19 -13 100 -144h8q12 84 12 108v244q0 405 -112 724q-2 0 -28 24h-4q-71 -21 -80 -40q-56 -75 -56 -372z" />
    <glyph glyph-name="R" unicode="R" horiz-adv-x="595" 
d="M139 1476h8q11 -14 72 -24q76 -31 124 -112q68 -165 68 -244v-40q0 -262 -152 -380q176 -42 204 -416v-152q0 -34 4 -100l-12 -8h-12l-16 12q-4 80 -4 120v144q0 150 -92 308q-64 60 -112 60h-4q4 -86 4 -128v-152q8 -198 8 -224v-8q-8 -16 -24 -16q-6 0 -20 16l4 28
q-8 169 -8 224v240q-17 0 -24 16v12q8 16 20 16q-20 549 -52 796zM171 1420q24 -292 44 -724q156 106 156 340v56q0 105 -88 268q-66 60 -100 60h-12z" />
    <glyph glyph-name="S" unicode="S" horiz-adv-x="575" 
d="M346 1351l12 -15v-7q0 -5 -20 -19h-40q-106 0 -144 -79q-32 -87 -32 -194q0 -66 56 -214q20 -40 216 -217q100 -144 100 -284q0 -111 -48 -217q-22 -50 -120 -86q-35 -19 -56 -19t-28 15v11q0 11 44 15q132 50 132 105q36 72 36 187q0 151 -136 296q-107 81 -160 157
q-36 39 -72 206q0 20 -4 52q0 128 48 228q55 79 216 79z" />
    <glyph glyph-name="T" unicode="T" horiz-adv-x="616" 
d="M506 1302l12 -14v-10q0 -17 -112 -17h-112q-6 0 -12 -14l8 -183q-4 -25 -4 -28q36 -605 36 -867q4 -7 4 -11q-4 -6 -4 -10l4 -24q-6 -14 -12 -14h-16q-4 0 -16 14q0 7 4 38q0 86 -36 864q0 127 -8 231l-8 4h-12l-128 -11q-12 13 -12 31q0 6 16 14q28 -7 32 -7q77 7 108 7
h164q51 0 104 7z" />
    <glyph glyph-name="U" unicode="U" horiz-adv-x="698" 
d="M201 1408h8q20 -10 20 -32v-20q36 -651 88 -1048q35 -268 108 -268q52 22 52 76q0 157 -32 792q4 116 4 224v96l-4 24l4 8q-4 54 -12 112l16 12h12q17 0 24 -112q0 -8 -4 -8q4 -60 4 -88v-128l-4 -24q0 -4 4 -4q-4 -47 -4 -68v-16q32 -696 32 -820q-11 -116 -104 -116
q-108 0 -144 384q-44 342 -84 1012z" />
    <glyph glyph-name="V" unicode="V" horiz-adv-x="633" 
d="M453 1376h16q6 0 12 -16l-120 -1072q-15 -284 -24 -284l-8 -4h-12q-19 0 -44 228q-104 660 -104 1056l-12 52q0 6 16 16h8q36 0 36 -312q51 -572 96 -836h4q0 82 112 1036q8 136 24 136z" />
    <glyph glyph-name="W" unicode="W" horiz-adv-x="846" 
d="M683 1316h12q6 0 12 -12q-44 -870 -56 -1200q-13 -72 -28 -72h-8q-21 0 -76 200q-104 337 -104 372h-4q-32 -464 -32 -596l-12 -8h-12q-16 0 -32 136q-88 414 -176 1072q-3 0 -16 56q0 6 16 16h16q18 0 44 -228q72 -474 96 -604l40 -216h4q33 528 44 556l20 4
q20 0 36 -156q19 -97 104 -372l36 -128l8 4q24 717 56 1168z" />
    <glyph glyph-name="X" unicode="X" horiz-adv-x="835" 
d="M535 1376q6 0 12 -12v-12q-40 -260 -96 -688q131 -252 216 -476l84 -168v-4q0 -6 -16 -16h-4q-31 0 -36 44q-62 107 -180 408q-6 1 -72 144h-8q-16 -83 -92 -396q-21 -124 -32 -124h-20q-6 0 -16 16q132 532 132 572q-185 378 -284 644v4l16 12h8q16 0 100 -224l168 -360
q12 0 52 344q32 240 48 292h20z" />
    <glyph glyph-name="Y" unicode="Y" horiz-adv-x="650" 
d="M509 1312h8q6 0 16 -16v-4q-32 -286 -68 -560l4 -24v-12q-14 0 -44 -396q-12 -198 -28 -296l-8 -4h-12q-8 2 -16 20q44 527 64 688q-108 235 -284 472q-32 23 -32 44v8q0 6 16 16h16q13 -5 24 -40q160 -198 264 -420h4q44 381 64 516z" />
    <glyph glyph-name="Z" unicode="Z" horiz-adv-x="725" 
d="M173 1208h8q0 -15 256 -24q72 -8 72 -36v-4q-88 -241 -212 -728q-88 -238 -88 -364q33 -8 108 -8q39 0 176 4q28 -3 28 -8l8 4h8q6 0 16 -16v-12q0 -8 -24 -16q-33 8 -64 8q-57 0 -184 -4q-67 8 -112 8q-8 13 -8 20q0 99 92 388q24 68 132 484q48 134 76 232
q-50 11 -288 24q-16 17 -16 32q0 6 16 16z" />
    <glyph glyph-name="bracketleft" unicode="[" horiz-adv-x="664" 
d="M430 1303l12 -16v-8q-15 -35 -256 -52q0 -2 -44 -16l44 -480q30 -244 60 -720q8 -24 12 -24q297 -16 312 -16l12 -20q-1 -11 -20 -20l-20 4q-58 0 -308 12q-35 0 -48 388q-84 872 -84 892q5 39 244 56q0 6 84 20z" />
    <glyph glyph-name="backslash" unicode="\" horiz-adv-x="569" 
d="M12 1236h16q18 0 128 -256q188 -372 380 -872q40 -80 40 -92q0 -6 -16 -16h-12q-15 1 -44 84q-182 451 -308 720q-71 133 -184 392q-6 0 -12 12v16q0 6 12 12z" />
    <glyph glyph-name="bracketright" unicode="]" horiz-adv-x="705" 
d="M171 1241h8q18 -16 20 -16q10 0 104 4q16 0 72 -4q22 4 36 4q60 -5 60 -36q-3 -28 -8 -28q12 -143 12 -256v-272q0 -266 36 -720q0 -11 -20 -20q-75 16 -160 24q-15 -4 -32 -4q-24 3 -24 24q6 16 12 16h52q72 0 128 -16v4q-16 170 -32 688v280q0 28 -8 268v8h-4
q-36 0 -48 -4q-44 4 -80 4q-31 0 -112 -4q-32 6 -32 32q6 17 20 24z" />
    <glyph glyph-name="asciicircum" unicode="^" 
d="M509 1215q66 -55 224 -232q132 -176 160 -204q0 -21 -12 -24h-16q-36 30 -180 224q-170 179 -180 184q-118 -132 -204 -284q-70 -130 -92 -140h-8q-6 0 -16 16v24q32 25 48 68q114 196 252 360q13 8 24 8z" />
    <glyph glyph-name="underscore" unicode="_" horiz-adv-x="1177" 
d="M506 -80q420 -24 552 -24h16q6 0 12 -12v-12l-12 -16q-208 4 -568 24q-362 -4 -384 -8q-60 4 -60 20v8q0 6 16 16q26 0 40 -4q274 8 388 8z" />
    <glyph glyph-name="grave" unicode="`" horiz-adv-x="346" 
d="M63 1256h14q102 -72 213 -114q11 -11 11 -20q0 -11 -18 -20h-8q-115 37 -212 111q-15 12 -15 29q10 14 15 14z" />
    <glyph glyph-name="a" unicode="a" horiz-adv-x="739" 
d="M263 1365h4q57 -26 97 -141q111 -344 164 -879q35 -174 35 -305q-5 -13 -27 -13q-16 31 -48 318q-9 31 -40 265l-31 4q-216 -20 -216 -44v-155l-27 -371q9 -14 9 -26q0 -7 -18 -18q-35 0 -35 44q31 422 31 508q-4 55 -4 111q2 288 48 609q19 93 58 93zM263 1312
q-58 -224 -58 -579q-4 0 -4 -97v-13q126 35 243 35v5q0 122 -133 578q-29 63 -48 71z" />
    <glyph glyph-name="b" unicode="b" horiz-adv-x="599" 
d="M248 1456q124 0 152 -260v-76q-20 -140 -128 -300q-3 -1 -24 -28v-4q81 -30 132 -116q53 -79 72 -244q0 -208 -88 -352q-57 -63 -112 -76h-8q-56 0 -56 136q-48 689 -48 1060q-8 108 -24 204q67 56 132 56zM160 1380q32 -249 32 -712q16 -188 40 -612l16 -16
q83 34 116 120q48 134 48 268q-32 192 -52 192q-27 78 -120 132q-34 0 -48 24v12q129 145 168 324v64q-20 240 -112 240q-50 0 -88 -36z" />
    <glyph glyph-name="c" unicode="c" horiz-adv-x="636" 
d="M338 1356h28q72 -13 72 -52q0 -6 -16 -16h-16q-26 32 -56 32q-100 -35 -100 -64q-80 -152 -80 -416v-68q0 -178 48 -428q29 -183 80 -248q62 -54 108 -56q59 0 128 88h12q6 0 12 -12v-8q0 -36 -88 -92q-37 -16 -68 -16h-4q-59 7 -124 64q-71 56 -124 456q-20 86 -20 284
v24q7 405 132 500q59 28 76 28z" />
    <glyph glyph-name="d" unicode="d" horiz-adv-x="612" 
d="M139 1388h24q19 -20 96 -44q114 -71 160 -200q40 -134 40 -212v-120q0 -16 4 -32q-27 -395 -72 -492q0 -44 -84 -212q-52 -76 -64 -76q-28 6 -28 16v16q20 31 20 56q-8 16 -8 24q4 12 8 12q-4 52 -4 84q0 992 -108 1156v8q0 6 16 16zM187 1328v-4q84 -258 84 -1112v-16
q4 -80 4 -88q68 102 116 344q20 132 32 324q0 314 -72 416q-44 92 -164 136z" />
    <glyph glyph-name="e" unicode="e" horiz-adv-x="575" 
d="M195 1392q41 -16 92 -16q80 4 108 4l8 -12v-16q0 -6 -12 -12q-22 0 -112 -4l-48 4q12 -77 12 -220q-24 -349 -24 -412q0 -10 168 -24l12 -16v-8q-2 -8 -20 -16q-63 12 -164 12q-24 -390 -24 -536v-72q1 -8 8 -8h4l152 16v-4l8 4h16q6 0 16 -16v-8q0 -6 -16 -16h-40
l-124 -16q-8 4 -12 4l-8 -4q-41 0 -44 48v68q0 168 52 1004v16q0 186 -24 240q0 6 16 16z" />
    <glyph glyph-name="f" unicode="f" horiz-adv-x="561" 
d="M195 1420q8 0 56 -28q168 -15 168 -28q4 -7 4 -16q0 -6 -16 -16q-134 16 -188 28q8 -58 8 -68q0 -26 -4 -80q12 -290 12 -496v-16q4 -12 24 -12h92q14 0 36 4q16 -6 16 -12v-16q0 -12 -36 -16q-8 0 -8 4l-28 -4h-68l-28 4q4 -367 4 -500q0 -36 4 -140l-20 -12l-20 12
l-8 528q4 22 4 36q-4 35 -4 44q0 31 4 112q-12 410 -16 472q4 29 4 76q0 48 -16 100q11 35 24 40z" />
    <glyph glyph-name="g" unicode="g" horiz-adv-x="732" 
d="M336 1312h8q76 0 120 -56v-8q0 -6 -16 -16q-8 0 -52 28q-26 12 -56 12h-16q-120 -29 -120 -684q0 -309 72 -472q23 -48 92 -76h16q72 14 72 60q14 0 40 240v196l-4 20q-4 0 -4 -4q-160 12 -160 24l-4 20v4q0 6 12 12h12q13 -10 172 -24q16 -16 16 -76v-100q0 -23 -4 -64
q4 -8 4 -12q-27 -316 -92 -316q0 -8 -60 -20h-16q-65 15 -116 76q-88 167 -88 516q0 659 132 716z" />
    <glyph glyph-name="h" unicode="h" horiz-adv-x="599" 
d="M339 1308h8q15 0 24 -48q-4 -97 -4 -148q0 -378 40 -744q20 -252 40 -344v-4q0 -6 -12 -12h-12q-32 0 -52 332q-20 185 -20 232q-4 0 -4 4q-74 -4 -108 -4h-40q-8 -243 -8 -324q0 -103 8 -236l-16 -12q-28 0 -28 36q0 43 -4 232q12 421 32 764v12q0 25 -4 60q4 16 4 28
l-4 40q4 38 4 76q0 5 -4 40l16 12h12q12 0 16 -44q-4 -70 -4 -88q0 -48 4 -184q-20 -282 -20 -372h60q26 0 80 4v16q-16 199 -16 484q0 33 4 144q-8 19 -8 36z" />
    <glyph glyph-name="i" unicode="i" horiz-adv-x="424" 
d="M213 1360h8q28 0 28 -212v-52q0 -78 -24 -404q0 -16 4 -32q-4 -209 -4 -332v-260q0 -8 8 -40q-5 -28 -16 -28h-16q-16 0 -16 108q0 694 24 956v112q0 93 -12 168q0 6 16 16z" />
    <glyph glyph-name="j" unicode="j" horiz-adv-x="486" 
d="M283 1324q11 0 24 -8q0 -2 -4 -52q12 -149 12 -704v-28q0 -39 8 -256q-15 -276 -120 -276h-16q-108 27 -108 68q-20 11 -24 188q13 12 20 12q20 -6 20 -28q0 -188 60 -188q21 -12 40 -12h4q68 0 84 228v20q-8 210 -8 252v48q0 221 -4 572q-8 54 -8 116v28q0 5 20 20z" />
    <glyph glyph-name="k" unicode="k" horiz-adv-x="629" 
d="M396 1424q22 0 28 -16v-20q0 -176 -80 -468q-16 -77 -68 -272q59 0 200 -380q33 -100 56 -244v-12q0 -6 -12 -12h-12q-20 10 -20 32v4q0 4 4 4q-52 241 -112 368q-88 208 -136 208l36 -608l-12 -8h-16q-5 0 -20 20v4q0 11 8 24q-37 651 -68 936q-56 318 -56 404v12
q0 6 16 16h8q6 0 16 -16v-20q12 -115 72 -540q12 -138 12 -160h4q140 541 140 660v40q0 4 -4 32z" />
    <glyph glyph-name="l" unicode="l" horiz-adv-x="575" 
d="M165 1436h4q6 0 16 -16q0 -20 -8 -20l4 -8q28 -436 28 -736q12 -97 12 -268v-348h216q6 0 12 -12v-12q0 -16 -68 -16h-184q-6 0 -16 16v24q0 28 4 28l-4 48v292q-16 527 -32 876l-12 132q6 20 28 20z" />
    <glyph glyph-name="m" unicode="m" horiz-adv-x="725" 
d="M169 1408h16q11 -4 148 -280q44 -123 80 -256h8v4q0 25 64 428q0 80 24 88h8q36 0 36 -384q0 -312 4 -408q-4 -33 -4 -220q0 -18 4 -52q0 -4 -4 -12q4 -89 4 -144v-108q0 -17 4 -44q-8 -18 -16 -20q-20 0 -32 24q4 40 4 60v196l-4 24l4 8q0 22 -4 76q0 113 4 200
q-4 232 -4 468v84l-4 40h-4q0 -22 -40 -268l-24 -208l-8 -4h-16q-14 0 -44 180q-65 225 -160 400h-4q28 -250 52 -720q-4 -80 -4 -140v-184q0 -75 -4 -220l-12 -8h-12q-9 0 -16 28q4 101 4 148v176q0 90 4 208q-24 483 -64 832z" />
    <glyph glyph-name="n" unicode="n" horiz-adv-x="698" 
d="M408 1364h12l16 -16q-8 -44 -8 -100q0 -102 88 -752l36 -408q-6 -20 -28 -20q-20 0 -76 284q-36 130 -140 564q-60 172 -88 304h-4l4 -48q0 -80 -16 -488q8 -367 32 -660v-8q-6 -16 -28 -16l-16 12l4 36q-24 261 -32 632q16 398 16 480q0 19 -4 92q4 8 4 12q-4 16 -4 32
q0 64 20 64q37 0 60 -132q136 -450 208 -788q24 -88 24 -96h4q-20 193 -92 752q-8 56 -12 156q4 77 4 100z" />
    <glyph glyph-name="o" unicode="o" horiz-adv-x="622" 
d="M304 1308h32q30 0 72 -132q40 -296 40 -592q0 -462 -56 -548q-31 -36 -56 -36h-16q-109 0 -140 348q-8 133 -16 380v76q0 244 76 432q-4 7 -4 16zM200 796q13 -407 32 -556q33 -200 96 -200q80 0 80 536v8q0 343 -44 604q-32 80 -44 80h-4q-72 -46 -108 -356z" />
    <glyph glyph-name="p" unicode="p" horiz-adv-x="555" 
d="M187 1404q187 0 256 -172q12 -39 16 -92q0 -250 -88 -548q-41 -71 -116 -108q-48 -3 -48 -12v-4q0 -53 4 -88q-4 -35 -4 -40q12 -226 12 -260q12 -2 12 -32v-12q-12 -31 -24 -36h-8q-6 0 -16 16v28q0 4 4 4q-7 39 -12 104q0 4 4 4l-12 168q4 40 4 60q-4 73 -4 92
q-16 8 -16 20q4 16 16 16q-8 106 -8 128l20 728q-8 0 -8 8v12q0 6 16 16zM219 1364l-20 -724q4 -84 4 -116l8 -4q46 0 92 48q69 44 112 492q4 73 4 96q0 104 -120 188q-35 12 -80 20z" />
    <glyph glyph-name="q" unicode="q" horiz-adv-x="692" 
d="M327 1400q75 0 116 -220q68 -219 68 -596v-204q0 -65 -24 -180q108 -167 108 -184v-4q0 -6 -12 -12h-12q-29 21 -96 152h-8q-27 -56 -76 -56q-174 0 -220 384q-20 187 -20 464q0 353 84 420q67 36 92 36zM191 944q0 -660 116 -760q24 -48 84 -48q31 0 52 60
q-116 174 -116 184v4q0 6 16 16h8q19 -13 100 -144h8q12 84 12 108v244q0 405 -112 724q-2 0 -28 24h-4q-71 -21 -80 -40q-56 -75 -56 -372z" />
    <glyph glyph-name="r" unicode="r" horiz-adv-x="595" 
d="M139 1476h8q11 -14 72 -24q76 -31 124 -112q68 -165 68 -244v-40q0 -262 -152 -380q176 -42 204 -416v-152q0 -34 4 -100l-12 -8h-12l-16 12q-4 80 -4 120v144q0 150 -92 308q-64 60 -112 60h-4q4 -86 4 -128v-152q8 -198 8 -224v-8q-8 -16 -24 -16q-6 0 -20 16l4 28
q-8 169 -8 224v240q-17 0 -24 16v12q8 16 20 16q-20 549 -52 796zM171 1420q24 -292 44 -724q156 106 156 340v56q0 105 -88 268q-66 60 -100 60h-12z" />
    <glyph glyph-name="s" unicode="s" horiz-adv-x="575" 
d="M346 1351l12 -15v-7q0 -5 -20 -19h-40q-106 0 -144 -79q-32 -87 -32 -194q0 -66 56 -214q20 -40 216 -217q100 -144 100 -284q0 -111 -48 -217q-22 -50 -120 -86q-35 -19 -56 -19t-28 15v11q0 11 44 15q132 50 132 105q36 72 36 187q0 151 -136 296q-107 81 -160 157
q-36 39 -72 206q0 20 -4 52q0 128 48 228q55 79 216 79z" />
    <glyph glyph-name="t" unicode="t" horiz-adv-x="616" 
d="M506 1302l12 -14v-10q0 -17 -112 -17h-112q-6 0 -12 -14l8 -183q-4 -25 -4 -28q36 -605 36 -867q4 -7 4 -11q-4 -6 -4 -10l4 -24q-6 -14 -12 -14h-16q-4 0 -16 14q0 7 4 38q0 86 -36 864q0 127 -8 231l-8 4h-12l-128 -11q-12 13 -12 31q0 6 16 14q28 -7 32 -7q77 7 108 7
h164q51 0 104 7z" />
    <glyph glyph-name="u" unicode="u" horiz-adv-x="698" 
d="M201 1408h8q20 -10 20 -32v-20q36 -651 88 -1048q35 -268 108 -268q52 22 52 76q0 157 -32 792q4 116 4 224v96l-4 24l4 8q-4 54 -12 112l16 12h12q17 0 24 -112q0 -8 -4 -8q4 -60 4 -88v-128l-4 -24q0 -4 4 -4q-4 -47 -4 -68v-16q32 -696 32 -820q-11 -116 -104 -116
q-108 0 -144 384q-44 342 -84 1012z" />
    <glyph glyph-name="v" unicode="v" horiz-adv-x="633" 
d="M453 1376h16q6 0 12 -16l-120 -1072q-15 -284 -24 -284l-8 -4h-12q-19 0 -44 228q-104 660 -104 1056l-12 52q0 6 16 16h8q36 0 36 -312q51 -572 96 -836h4q0 82 112 1036q8 136 24 136z" />
    <glyph glyph-name="w" unicode="w" horiz-adv-x="846" 
d="M683 1316h12q6 0 12 -12q-44 -870 -56 -1200q-13 -72 -28 -72h-8q-21 0 -76 200q-104 337 -104 372h-4q-32 -464 -32 -596l-12 -8h-12q-16 0 -32 136q-88 414 -176 1072q-3 0 -16 56q0 6 16 16h16q18 0 44 -228q72 -474 96 -604l40 -216h4q33 528 44 556l20 4
q20 0 36 -156q19 -97 104 -372l36 -128l8 4q24 717 56 1168z" />
    <glyph glyph-name="x" unicode="x" horiz-adv-x="835" 
d="M535 1376q6 0 12 -12v-12q-40 -260 -96 -688q131 -252 216 -476l84 -168v-4q0 -6 -16 -16h-4q-31 0 -36 44q-62 107 -180 408q-6 1 -72 144h-8q-16 -83 -92 -396q-21 -124 -32 -124h-20q-6 0 -16 16q132 532 132 572q-185 378 -284 644v4l16 12h8q16 0 100 -224l168 -360
q12 0 52 344q32 240 48 292h20z" />
    <glyph glyph-name="y" unicode="y" horiz-adv-x="650" 
d="M509 1312h8q6 0 16 -16v-4q-32 -286 -68 -560l4 -24v-12q-14 0 -44 -396q-12 -198 -28 -296l-8 -4h-12q-8 2 -16 20q44 527 64 688q-108 235 -284 472q-32 23 -32 44v8q0 6 16 16h16q13 -5 24 -40q160 -198 264 -420h4q44 381 64 516z" />
    <glyph glyph-name="z" unicode="z" horiz-adv-x="725" 
d="M173 1208h8q0 -15 256 -24q72 -8 72 -36v-4q-88 -241 -212 -728q-88 -238 -88 -364q33 -8 108 -8q39 0 176 4q28 -3 28 -8l8 4h8q6 0 16 -16v-12q0 -8 -24 -16q-33 8 -64 8q-57 0 -184 -4q-67 8 -112 8q-8 13 -8 20q0 99 92 388q24 68 132 484q48 134 76 232
q-50 11 -288 24q-16 17 -16 32q0 6 16 16z" />
    <glyph glyph-name="braceleft" unicode="{" horiz-adv-x="534" 
d="M345 1571h8q6 0 16 -16v-16q0 -7 -64 -40q-100 -80 -100 -240v-8q0 -213 52 -388v-52q0 -58 -92 -124q101 -49 112 -252v-84q0 -98 -4 -280q0 -60 56 -128q119 -68 120 -76v-12q0 -6 -12 -12q-74 14 -160 100q-44 72 -44 128v4q4 154 4 240v120q0 172 -108 228
q-20 10 -20 32l88 72q24 30 24 76q-56 186 -56 412v4q0 223 180 312z" />
    <glyph glyph-name="bar" unicode="|" 
d="M452 1695h8q28 0 28 -320v-79q0 -117 -24 -610q0 -25 4 -48q-4 -316 -4 -502v-392q0 -12 8 -61q-5 -42 -16 -42h-16q-16 0 -16 163q0 1048 24 1444v169q0 141 -12 254q0 9 16 24z" />
    <glyph glyph-name="braceright" unicode="}" horiz-adv-x="602" 
d="M98 1583q156 -46 212 -144q52 -102 52 -292h-4l4 -8v-16q0 -4 -4 -4l4 -8v-16q0 -103 -12 -232q0 -76 80 -152v-12q-52 -38 -52 -76q-4 -24 -4 -60q44 -471 44 -544q0 -187 -92 -220q-26 -8 -36 -8h-16q-6 0 -12 12v16q0 11 56 20q60 28 60 184q0 74 -44 536
q0 114 40 148v4q-64 72 -64 156q12 118 12 188v52q0 300 -88 360q-41 47 -148 76l-4 28z" />
    <glyph glyph-name="asciitilde" unicode="~" horiz-adv-x="739" 
d="M515 895h16q6 0 12 -12v-4q0 -85 -68 -108q-7 -4 -20 -4q-74 0 -152 56q-59 24 -84 24q-47 0 -84 -80h-16q-16 7 -16 28q47 92 116 92q56 0 200 -80h32q35 0 52 48l-4 8v16q0 6 16 16z" />
    <glyph glyph-name="exclamdown" unicode="&#xa1;" horiz-adv-x="445" 
d="M263 -396q-6 0 -16 16l4 20q-76 443 -76 692q0 82 -4 416l12 8h12q8 -2 16 -20q4 -289 4 -428l4 -48q-4 -7 -4 -16q0 -112 76 -616q0 -24 -28 -24zM203 948q-28 0 -28 28q7 48 36 48q28 -12 28 -36q0 -23 -36 -40z" />
    <glyph glyph-name="cent" unicode="&#xa2;" horiz-adv-x="629" 
d="M297 1328h28q72 -13 72 -52q0 -6 -16 -16h-16q-26 32 -56 32q-100 -35 -100 -64q-80 -152 -80 -416v-68q0 -178 48 -428q29 -183 80 -248q62 -54 108 -56q59 0 128 88h12q6 0 12 -12v-8q0 -36 -88 -92q-37 -16 -68 -16h-4q-59 7 -124 64q-71 56 -124 456q-20 86 -20 284
v24q7 405 132 500q59 28 76 28zM524 1236h12q6 0 16 -16v-8q-30 -35 -120 -268q-160 -314 -388 -932q-15 -12 -28 -12q-16 8 -16 24q32 64 240 608q158 330 264 588z" />
    <glyph glyph-name="sterling" unicode="&#xa3;" horiz-adv-x="842" 
d="M323 1307q60 0 60 -20v-8q0 -6 -16 -16q-2 0 -52 4q-88 -56 -88 -192v-24q0 -106 56 -364q153 -20 204 -32l8 -12v-8q-8 -16 -20 -16q-64 12 -192 24v-40q0 -63 -60 -224q-60 -197 -60 -236v-16q36 24 100 24q39 0 440 -56q36 6 36 32l8 4h16q6 0 12 -12q-6 -60 -60 -60
h-32l-412 52h-16q-73 0 -88 -52l-8 -4h-16q-20 0 -20 76v4q0 78 120 436v84q-104 21 -104 48q0 21 20 32h8q29 -35 72 -40v4q-52 245 -52 372q0 176 120 236h16z" />
    <glyph glyph-name="currency" unicode="&#xa4;" 
d="M350 560q41 -40 99 -57q29 -8 58 -8t58 8q58 17 99 57q40 41 57 99q9 29 9 58t-9 58q-17 58 -57 99q-41 40 -100 57q-29 8 -58 8t-58 -9q-58 -17 -98 -56q-39 -40 -56 -98q-10 -30 -10 -60q0 -28 9 -56q16 -59 57 -100zM240 903l-118 118l80 81l118 -118q44 30 99 46
q44 14 89 14q41 0 83 -12q57 -17 102 -48l118 118l80 -81l-117 -117q31 -46 48 -102q12 -42 12 -85q0 -42 -12 -85q-17 -56 -48 -102l117 -117l-80 -81l-118 118q-45 -32 -101 -48q-42 -12 -85 -12q-42 0 -85 12q-57 16 -102 48l-118 -118l-80 81l118 117q-32 46 -48 103
q-12 42 -12 84q0 44 13 87q16 55 47 99z" />
    <glyph glyph-name="yen" unicode="&#xa5;" horiz-adv-x="848" 
d="M601 1199h8q16 -8 16 -20q-28 -74 -128 -412h4q50 12 132 12q6 0 16 -16v-8q0 -6 -16 -16h-8q-71 0 -144 -16q4 -60 4 -88v-32l208 36q26 -10 28 -20v-12q-2 -8 -20 -16l-16 8q-181 -32 -196 -40q0 -190 8 -456l-12 -8h-12q-10 0 -16 28q-8 289 -8 428h-4
q-109 -11 -140 -24q-6 0 -16 16q0 38 112 44q16 0 48 8q0 15 -8 120q-100 -12 -148 -12l-8 12v12q8 16 20 16q61 0 144 16v8q-89 121 -300 348q-60 33 -60 60q0 6 16 16q52 -4 328 -336q28 -40 32 -40h4l108 356q19 28 24 28z" />
    <glyph glyph-name="brokenbar" unicode="&#xa6;" 
d="M427 371h160v-789h-160v789zM427 1578h160v-789h-160v789z" />
    <glyph glyph-name="section" unicode="&#xa7;" 
d="M545 321q56 16 97 53q73 65 73 166q0 5 -1 10h-2q-1 14 -4 27q-22 61 -113 127q-59 29 -126 29q-78 0 -125 -44.5t-47 -117.5q0 -123 248 -250zM466 -346q113 6 185 69q72 64 72 165q0 125 -316 276q-123 64 -175.5 137t-52.5 177q0 148 89 237q67 65 170 82l-40 19
q-123 64 -175.5 137t-52.5 177q0 148 89 237q82 79 216 86q8 1 17 1h3q66 0 163 -16.5t97 -41.5v-194h-51q-5 81 -80 132q-70 47 -149 51h-15q-78 0 -125 -44.5t-47 -117.5q0 -132 287 -269q149 -67 204.5 -143.5t55.5 -187.5q0 -171 -101 -282q-47 -39 -99 -64
q108 -56 154 -118q55 -77 55 -187q0 -171 -101 -283q-124 -102 -277 -105v1q-6 -1 -13 -1h-3q-66 0 -163 16.5t-97 41.5v194h51q5 -81 80 -132q68 -45 145 -50z" />
    <glyph glyph-name="dieresis" unicode="&#xa8;" horiz-adv-x="1024" 
d="M381 1186h9q22 0 31 -28q0 -22 -31 -28h-9q-17 0 -19 26v3q3 27 19 27zM516 1183q20 0 28 -41v-3q-7 -27 -24 -27h-7q-27 6 -27 38v2q0 23 27 31h3z" />
    <glyph glyph-name="copyright" unicode="&#xa9;" horiz-adv-x="1033" 
d="M425 1189h48q114 -22 204 -128q120 -168 120 -324q0 -181 -168 -280q-101 -40 -160 -40q-152 0 -256 216q-28 91 -28 184v8q0 170 120 304q34 25 104 40q0 12 16 20zM457 1149q0 -16 -92 -32q-62 -26 -108 -132q-32 -99 -32 -164v-12q0 -251 196 -344q40 -8 52 -8
q92 0 208 84q76 97 76 200q0 136 -112 296q-105 112 -188 112zM481 953l12 -16q0 -32 -56 -32q-52 -23 -52 -120q0 -107 88 -124l48 4l8 -12v-4q0 -28 -28 -28h-36q-91 0 -120 152v16q0 118 72 148q31 16 64 16z" />
    <glyph glyph-name="ordfeminine" unicode="&#xaa;" horiz-adv-x="648" 
 />
    <glyph glyph-name="guillemotleft" unicode="&#xab;" horiz-adv-x="944" 
d="M174 479l342 303h14v-37l-205 -266l205 -266v-37h-14zM487 479l342 303h14v-37l-205 -266l205 -266v-37h-14z" />
    <glyph glyph-name="logicalnot" unicode="&#xac;" 
d="M87 767h840v-491l-1 -1h-98v392h-741v100z" />
    <glyph glyph-name="registered" unicode="&#xae;" horiz-adv-x="1054" 
d="M406 1197h60q111 -22 236 -180q116 -179 116 -364v-12q0 -184 -124 -244q-84 -28 -144 -28h-12q-68 0 -168 84q-144 187 -144 428q0 258 160 304zM266 889v-4q0 -246 148 -420q84 -56 140 -56h8q160 24 160 56q60 79 60 188q0 141 -104 332q-126 152 -216 172h-12
q-89 -13 -120 -48q-64 -76 -64 -220zM410 1045q120 -13 120 -96v-8q0 -59 -60 -124v-4q83 -21 164 -148q0 -11 32 -60v-16q0 -6 -12 -12h-16q-5 1 -68 112q-73 87 -144 96v-4q8 -123 12 -132q-8 -24 -16 -24h-16q-7 0 -12 20q0 4 4 4q-26 344 -60 344q0 37 72 52zM390 993
q14 -30 32 -160h4q54 46 68 108q-14 56 -52 56q0 5 -32 8q-20 -5 -20 -12z" />
    <glyph glyph-name="macron" unicode="&#xaf;" horiz-adv-x="670" 
 />
    <glyph glyph-name="degree" unicode="&#xb0;" horiz-adv-x="674" 
d="M339 1372q-86 0 -147.5 -61t-61.5 -148t61 -147t148 -60t147 60t60 147t-60.5 148t-146.5 61zM339 1442q115 0 196 -81.5t81 -196.5q0 -114 -82 -196t-197 -82q-117 0 -197 81t-80 197t81.5 197t197.5 81z" />
    <glyph glyph-name="plusminus" unicode="&#xb1;" 
 />
    <glyph glyph-name="uni00B2" unicode="&#xb2;" 
 />
    <glyph glyph-name="uni00B3" unicode="&#xb3;" 
 />
    <glyph glyph-name="acute" unicode="&#xb4;" horiz-adv-x="1024" 
d="M532 1215h5q27 0 27 -27q0 -13 -97 -55q-86 -44 -107 -57q-4 -2 -10 -2h-5q-24 3 -24 20v2q0 22 146 92q52 27 65 27z" />
    <glyph glyph-name="mu" unicode="&#xb5;" horiz-adv-x="1180" 
 />
    <glyph glyph-name="paragraph" unicode="&#xb6;" horiz-adv-x="1024" 
d="M929 1435v-70h-127v-1365h-82v1365h-166v-1365h-84v738q-174 8 -275.5 102.5t-101.5 245.5q0 157 107.5 253t285.5 96h443z" />
    <glyph glyph-name="periodcentered" unicode="&#xb7;" horiz-adv-x="508" 
d="M145 740l82 84q15 14 29 14q13 0 31 -16l80 -86q12 -16 12 -29q0 -15 -14 -31l-80 -88q-20 -20 -29 -20q-16 0 -29 14l-88 101q-10 13 -10 26q0 15 16 31z" />
    <glyph glyph-name="periodcentered" unicode="&#x2219;" horiz-adv-x="508" 
d="M145 740l82 84q15 14 29 14q13 0 31 -16l80 -86q12 -16 12 -29q0 -15 -14 -31l-80 -88q-20 -20 -29 -20q-16 0 -29 14l-88 101q-10 13 -10 26q0 15 16 31z" />
    <glyph glyph-name="cedilla" unicode="&#xb8;" horiz-adv-x="1024" 
d="M548 40q15 0 21 -15q-3 -36 -3 -62v-18q1 -5 5 -5h51q52 0 67 -54v-10q0 -84 -97 -118l-16 -2q-43 4 -43 15v5q1 6 23 13q12 14 64 46q23 34 23 46q0 16 -18 16h-28q-6 0 -10 -3q-67 0 -67 67q0 79 28 79z" />
    <glyph glyph-name="uni00B9" unicode="&#xb9;" 
 />
    <glyph glyph-name="ordmasculine" unicode="&#xba;" horiz-adv-x="718" 
 />
    <glyph glyph-name="guillemotright" unicode="&#xbb;" horiz-adv-x="944" 
d="M115 176h-14v37l205 266l-205 266v37h14l342 -303zM428 176h-14v37l205 266l-205 266v37h14l342 -303z" />
    <glyph glyph-name="onequarter" unicode="&#xbc;" horiz-adv-x="1708" 
 />
    <glyph glyph-name="onehalf" unicode="&#xbd;" horiz-adv-x="1964" 
 />
    <glyph glyph-name="threequarters" unicode="&#xbe;" horiz-adv-x="1708" 
 />
    <glyph glyph-name="questiondown" unicode="&#xbf;" horiz-adv-x="664" 
d="M334 -308q-78 0 -148 68q-56 71 -56 132v28q0 201 112 384q32 66 32 208q-8 66 -8 104v44q0 21 16 28h12q10 0 12 -16q0 -18 -4 -24q0 -5 12 -136q0 -201 -80 -308q-68 -145 -68 -292q0 -85 80 -152q62 -28 96 -28q128 35 128 112v36l-12 16v4q0 21 16 28h16
q20 -10 20 -32v-56q0 -102 -160 -148h-16zM294 952h-12q-5 0 -20 20v20q0 32 32 32t36 -40q-2 -13 -36 -32z" />
    <glyph glyph-name="Agrave" unicode="&#xc0;" horiz-adv-x="739" 
d="M263 1365h4q57 -26 97 -141q111 -344 164 -879q35 -174 35 -305q-5 -13 -27 -13q-16 31 -48 318q-9 31 -40 265l-31 4q-216 -20 -216 -44v-155l-27 -371q9 -14 9 -26q0 -7 -18 -18q-35 0 -35 44q31 422 31 508q-4 55 -4 111q2 288 48 609q19 93 58 93zM263 1312
q-58 -224 -58 -579q-4 0 -4 -97v-13q126 35 243 35v5q0 122 -133 578q-29 63 -48 71zM229 1666h14q102 -72 213 -114q11 -11 11 -20q0 -11 -18 -20h-8q-115 37 -212 111q-15 12 -15 29q10 14 15 14z" />
    <glyph glyph-name="Aacute" unicode="&#xc1;" horiz-adv-x="739" 
d="M263 1365h4q57 -26 97 -141q111 -344 164 -879q35 -174 35 -305q-5 -13 -27 -13q-16 31 -48 318q-9 31 -40 265l-31 4q-216 -20 -216 -44v-155l-27 -371q9 -14 9 -26q0 -7 -18 -18q-35 0 -35 44q31 422 31 508q-4 55 -4 111q2 288 48 609q19 93 58 93zM263 1312
q-58 -224 -58 -579q-4 0 -4 -97v-13q126 35 243 35v5q0 122 -133 578q-29 63 -48 71zM431 1625h5q27 0 27 -27q0 -13 -97 -55q-86 -44 -107 -57q-4 -2 -10 -2h-5q-24 3 -24 20v2q0 22 146 92q52 27 65 27z" />
    <glyph glyph-name="Acircumflex" unicode="&#xc2;" horiz-adv-x="739" 
d="M263 1365h4q57 -26 97 -141q111 -344 164 -879q35 -174 35 -305q-5 -13 -27 -13q-16 31 -48 318q-9 31 -40 265l-31 4q-216 -20 -216 -44v-155l-27 -371q9 -14 9 -26q0 -7 -18 -18q-35 0 -35 44q31 422 31 508q-4 55 -4 111q2 288 48 609q19 93 58 93zM263 1312
q-58 -224 -58 -579q-4 0 -4 -97v-13q126 35 243 35v5q0 122 -133 578q-29 63 -48 71zM243 1651q55 -25 151 -102v-17q-5 -12 -21 -12q-5 0 -128 85h-2q-26 -29 -79 -102l-12 -6q-12 4 -17 15v5q2 35 99 134h9z" />
    <glyph glyph-name="Atilde" unicode="&#xc3;" horiz-adv-x="739" 
d="M264 1365h4q57 -26 97 -141q111 -344 164 -879q35 -174 35 -305q-5 -13 -27 -13q-16 31 -48 318q-9 31 -40 265l-31 4q-216 -20 -216 -44v-155l-27 -371q9 -14 9 -26q0 -7 -18 -18q-35 0 -35 44q31 422 31 508q-4 55 -4 111q2 288 48 609q19 93 58 93zM264 1312
q-58 -224 -58 -579q-4 0 -4 -97v-13q126 35 243 35v5q0 122 -133 578q-29 63 -48 71zM539 1585h16q6 0 12 -12v-4q0 -85 -68 -108q-7 -4 -20 -4q-74 0 -152 56q-59 24 -84 24q-47 0 -84 -80h-16q-16 7 -16 28q47 92 116 92q56 0 200 -80h32q35 0 52 48l-4 8v16q0 6 16 16z
" />
    <glyph glyph-name="Adieresis" unicode="&#xc4;" horiz-adv-x="739" 
d="M234 1365h4q57 -26 97 -141q111 -344 164 -879q35 -174 35 -305q-5 -13 -27 -13q-16 31 -48 318q-9 31 -40 265l-31 4q-216 -20 -216 -44v-155l-27 -371q9 -14 9 -26q0 -7 -18 -18q-35 0 -35 44q31 422 31 508q-4 55 -4 111q2 288 48 609q19 93 58 93zM234 1312
q-58 -224 -58 -579q-4 0 -4 -97v-13q126 35 243 35v5q0 122 -133 578q-29 63 -48 71zM200 1596h9q22 0 31 -28q0 -22 -31 -28h-9q-17 0 -19 26v3q3 27 19 27zM335 1593q20 0 28 -41v-3q-7 -27 -24 -27h-7q-27 6 -27 38v2q0 23 27 31h3z" />
    <glyph glyph-name="Aring" unicode="&#xc5;" horiz-adv-x="739" 
d="M263 1365h4q57 -26 97 -141q111 -344 164 -879q35 -174 35 -305q-5 -13 -27 -13q-16 31 -48 318q-9 31 -40 265l-31 4q-216 -20 -216 -44v-155l-27 -371q9 -14 9 -26q0 -7 -18 -18q-35 0 -35 44q31 422 31 508q-4 55 -4 111q2 288 48 609q19 93 58 93zM263 1312
q-58 -224 -58 -579q-4 0 -4 -97v-13q126 35 243 35v5q0 122 -133 578q-29 63 -48 71zM295 1708q42 0 56 -77v-14q-11 -61 -54 -61q0 -2 -11 -2q-45 0 -73 45q-11 19 -11 41q0 47 66 61q20 7 27 7zM241 1638v-2q0 -32 45 -43q27 3 27 27v13q-3 19 -20 37h-3q-49 -9 -49 -32z
" />
    <glyph glyph-name="AE" unicode="&#xc6;" horiz-adv-x="861" 
d="M263 1365h4q57 -26 97 -141q111 -344 164 -879q35 -174 35 -305q-5 -13 -27 -13q-16 31 -48 318q-9 31 -40 265l-31 4q-216 -20 -216 -44v-155l-27 -371q9 -14 9 -26q0 -7 -18 -18q-35 0 -35 44q31 422 31 508q-4 55 -4 111q2 288 48 609q19 93 58 93zM263 1312
q-58 -224 -58 -579q-4 0 -4 -97v-13q126 35 243 35v5q0 122 -133 578q-29 63 -48 71zM556 1392q41 -16 92 -16q80 4 108 4l8 -12v-16q0 -6 -12 -12q-22 0 -112 -4l-48 4q12 -77 12 -220q-24 -349 -24 -412q0 -10 168 -24l12 -16v-8q-2 -8 -20 -16q-63 12 -164 12
q-24 -390 -24 -536v-72q1 -8 8 -8h4l152 16v-4l8 4h16q6 0 16 -16v-8q0 -6 -16 -16h-40l-124 -16q-8 4 -12 4l-8 -4q-41 0 -44 48v68q0 168 52 1004v16q0 186 -24 240q0 6 16 16z" />
    <glyph glyph-name="Ccedilla" unicode="&#xc7;" horiz-adv-x="636" 
d="M338 1356h28q72 -13 72 -52q0 -6 -16 -16h-16q-26 32 -56 32q-100 -35 -100 -64q-80 -152 -80 -416v-68q0 -178 48 -428q29 -183 80 -248q62 -54 108 -56q59 0 128 88h12q6 0 12 -12v-8q0 -36 -88 -92q-37 -16 -68 -16h-4q-59 7 -124 64q-71 56 -124 456q-20 86 -20 284
v24q7 405 132 500q59 28 76 28zM356 40q15 0 21 -15q-3 -36 -3 -62v-18q1 -5 5 -5h51q52 0 67 -54v-10q0 -84 -97 -118l-16 -2q-43 4 -43 15v5q1 6 23 13q12 14 64 46q23 34 23 46q0 16 -18 16h-28q-6 0 -10 -3q-67 0 -67 67q0 79 28 79z" />
    <glyph glyph-name="Egrave" unicode="&#xc8;" horiz-adv-x="575" 
d="M202 1392q41 -16 92 -16q80 4 108 4l8 -12v-16q0 -6 -12 -12q-22 0 -112 -4l-48 4q12 -77 12 -220q-24 -349 -24 -412q0 -10 168 -24l12 -16v-8q-2 -8 -20 -16q-63 12 -164 12q-24 -390 -24 -536v-72q1 -8 8 -8h4l152 16v-4l8 4h16q6 0 16 -16v-8q0 -6 -16 -16h-40
l-124 -16q-8 4 -12 4l-8 -4q-41 0 -44 48v68q0 168 52 1004v16q0 186 -24 240q0 6 16 16zM166 1666h14q102 -72 213 -114q11 -11 11 -20q0 -11 -18 -20h-8q-115 37 -212 111q-15 12 -15 29q10 14 15 14z" />
    <glyph glyph-name="Eacute" unicode="&#xc9;" horiz-adv-x="575" 
d="M195 1392q41 -16 92 -16q80 4 108 4l8 -12v-16q0 -6 -12 -12q-22 0 -112 -4l-48 4q12 -77 12 -220q-24 -349 -24 -412q0 -10 168 -24l12 -16v-8q-2 -8 -20 -16q-63 12 -164 12q-24 -390 -24 -536v-72q1 -8 8 -8h4l152 16v-4l8 4h16q6 0 16 -16v-8q0 -6 -16 -16h-40
l-124 -16q-8 4 -12 4l-8 -4q-41 0 -44 48v68q0 168 52 1004v16q0 186 -24 240q0 6 16 16zM407 1625h5q27 0 27 -27q0 -13 -97 -55q-86 -44 -107 -57q-4 -2 -10 -2h-5q-24 3 -24 20v2q0 22 146 92q52 27 65 27z" />
    <glyph glyph-name="Ecircumflex" unicode="&#xca;" horiz-adv-x="575" 
d="M192 1392q41 -16 92 -16q80 4 108 4l8 -12v-16q0 -6 -12 -12q-22 0 -112 -4l-48 4q12 -77 12 -220q-24 -349 -24 -412q0 -10 168 -24l12 -16v-8q-2 -8 -20 -16q-63 12 -164 12q-24 -390 -24 -536v-72q1 -8 8 -8h4l152 16v-4l8 4h16q6 0 16 -16v-8q0 -6 -16 -16h-40
l-124 -16q-8 4 -12 4l-8 -4q-41 0 -44 48v68q0 168 52 1004v16q0 186 -24 240q0 6 16 16zM260 1651q55 -25 151 -102v-17q-5 -12 -21 -12q-5 0 -128 85h-2q-26 -29 -79 -102l-12 -6q-12 4 -17 15v5q2 35 99 134h9z" />
    <glyph glyph-name="Edieresis" unicode="&#xcb;" horiz-adv-x="575" 
d="M189 1392q41 -16 92 -16q80 4 108 4l8 -12v-16q0 -6 -12 -12q-22 0 -112 -4l-48 4q12 -77 12 -220q-24 -349 -24 -412q0 -10 168 -24l12 -16v-8q-2 -8 -20 -16q-63 12 -164 12q-24 -390 -24 -536v-72q1 -8 8 -8h4l152 16v-4l8 4h16q6 0 16 -16v-8q0 -6 -16 -16h-40
l-124 -16q-8 4 -12 4l-8 -4q-41 0 -44 48v68q0 168 52 1004v16q0 186 -24 240q0 6 16 16zM198 1596h9q22 0 31 -28q0 -22 -31 -28h-9q-17 0 -19 26v3q3 27 19 27zM333 1593q20 0 28 -41v-3q-7 -27 -24 -27h-7q-27 6 -27 38v2q0 23 27 31h3z" />
    <glyph glyph-name="Igrave" unicode="&#xcc;" horiz-adv-x="424" 
d="M274 1360h8q28 0 28 -212v-52q0 -78 -24 -404q0 -16 4 -32q-4 -209 -4 -332v-260q0 -8 8 -40q-5 -28 -16 -28h-16q-16 0 -16 108q0 694 24 956v112q0 93 -12 168q0 6 16 16zM160 1666h14q102 -72 213 -114q11 -11 11 -20q0 -11 -18 -20h-8q-115 37 -212 111
q-15 12 -15 29q10 14 15 14z" />
    <glyph glyph-name="Iacute" unicode="&#xcd;" horiz-adv-x="424" 
d="M213 1360h8q28 0 28 -212v-52q0 -78 -24 -404q0 -16 4 -32q-4 -209 -4 -332v-260q0 -8 8 -40q-5 -28 -16 -28h-16q-16 0 -16 108q0 694 24 956v112q0 93 -12 168q0 6 16 16zM347 1625h5q27 0 27 -27q0 -13 -97 -55q-86 -44 -107 -57q-4 -2 -10 -2h-5q-24 3 -24 20v2
q0 22 146 92q52 27 65 27z" />
    <glyph glyph-name="Icircumflex" unicode="&#xce;" horiz-adv-x="424" 
d="M206 1360h8q28 0 28 -212v-52q0 -78 -24 -404q0 -16 4 -32q-4 -209 -4 -332v-260q0 -8 8 -40q-5 -28 -16 -28h-16q-16 0 -16 108q0 694 24 956v112q0 93 -12 168q0 6 16 16zM196 1651q55 -25 151 -102v-17q-5 -12 -21 -12q-5 0 -128 85h-2q-26 -29 -79 -102l-12 -6
q-12 4 -17 15v5q2 35 99 134h9z" />
    <glyph glyph-name="Idieresis" unicode="&#xcf;" horiz-adv-x="424" 
d="M173 1360h8q28 0 28 -212v-52q0 -78 -24 -404q0 -16 4 -32q-4 -209 -4 -332v-260q0 -8 8 -40q-5 -28 -16 -28h-16q-16 0 -16 108q0 694 24 956v112q0 93 -12 168q0 6 16 16zM104 1596h9q22 0 31 -28q0 -22 -31 -28h-9q-17 0 -19 26v3q3 27 19 27zM239 1593q20 0 28 -41
v-3q-7 -27 -24 -27h-7q-27 6 -27 38v2q0 23 27 31h3z" />
    <glyph glyph-name="Eth" unicode="&#xd0;" horiz-adv-x="612" 
d="M139 1388h24q19 -20 96 -44q114 -71 160 -200q40 -134 40 -212v-120q0 -16 4 -32q-27 -395 -72 -492q0 -44 -84 -212q-52 -76 -64 -76q-28 6 -28 16v16q20 31 20 56q-8 16 -8 24q4 12 8 12q-4 52 -4 84q0 992 -108 1156v8q0 6 16 16zM187 1328v-4q84 -258 84 -1112v-16
q4 -80 4 -88q68 102 116 344q20 132 32 324q0 314 -72 416q-44 92 -164 136zM301 767q420 -24 552 -24h16q6 0 12 -12v-12l-12 -16q-208 4 -568 24q-362 -4 -384 -8q-60 4 -60 20v8q0 6 16 16q26 0 40 -4q274 8 388 8z" />
    <glyph glyph-name="Ntilde" unicode="&#xd1;" horiz-adv-x="698" 
d="M408 1364h12l16 -16q-8 -44 -8 -100q0 -102 88 -752l36 -408q-6 -20 -28 -20q-20 0 -76 284q-36 130 -140 564q-60 172 -88 304h-4l4 -48q0 -80 -16 -488q8 -367 32 -660v-8q-6 -16 -28 -16l-16 12l4 36q-24 261 -32 632q16 398 16 480q0 19 -4 92q4 8 4 12q-4 16 -4 32
q0 64 20 64q37 0 60 -132q136 -450 208 -788q24 -88 24 -96h4q-20 193 -92 752q-8 56 -12 156q4 77 4 100zM550 1585h16q6 0 12 -12v-4q0 -85 -68 -108q-7 -4 -20 -4q-74 0 -152 56q-59 24 -84 24q-47 0 -84 -80h-16q-16 7 -16 28q47 92 116 92q56 0 200 -80h32q35 0 52 48
l-4 8v16q0 6 16 16z" />
    <glyph glyph-name="Ograve" unicode="&#xd2;" horiz-adv-x="622" 
d="M304 1308h32q30 0 72 -132q40 -296 40 -592q0 -462 -56 -548q-31 -36 -56 -36h-16q-109 0 -140 348q-8 133 -16 380v76q0 244 76 432q-4 7 -4 16zM200 796q13 -407 32 -556q33 -200 96 -200q80 0 80 536v8q0 343 -44 604q-32 80 -44 80h-4q-72 -46 -108 -356zM188 1666
h14q102 -72 213 -114q11 -11 11 -20q0 -11 -18 -20h-8q-115 37 -212 111q-15 12 -15 29q10 14 15 14z" />
    <glyph glyph-name="Oacute" unicode="&#xd3;" horiz-adv-x="622" 
d="M304 1308h32q30 0 72 -132q40 -296 40 -592q0 -462 -56 -548q-31 -36 -56 -36h-16q-109 0 -140 348q-8 133 -16 380v76q0 244 76 432q-4 7 -4 16zM200 796q13 -407 32 -556q33 -200 96 -200q80 0 80 536v8q0 343 -44 604q-32 80 -44 80h-4q-72 -46 -108 -356zM436 1625h5
q27 0 27 -27q0 -13 -97 -55q-86 -44 -107 -57q-4 -2 -10 -2h-5q-24 3 -24 20v2q0 22 146 92q52 27 65 27z" />
    <glyph glyph-name="Ocircumflex" unicode="&#xd4;" horiz-adv-x="622" 
d="M304 1308h32q30 0 72 -132q40 -296 40 -592q0 -462 -56 -548q-31 -36 -56 -36h-16q-109 0 -140 348q-8 133 -16 380v76q0 244 76 432q-4 7 -4 16zM200 796q13 -407 32 -556q33 -200 96 -200q80 0 80 536v8q0 343 -44 604q-32 80 -44 80h-4q-72 -46 -108 -356zM292 1651
q55 -25 151 -102v-17q-5 -12 -21 -12q-5 0 -128 85h-2q-26 -29 -79 -102l-12 -6q-12 4 -17 15v5q2 35 99 134h9z" />
    <glyph glyph-name="Otilde" unicode="&#xd5;" horiz-adv-x="622" 
d="M304 1308h32q30 0 72 -132q40 -296 40 -592q0 -462 -56 -548q-31 -36 -56 -36h-16q-109 0 -140 348q-8 133 -16 380v76q0 244 76 432q-4 7 -4 16zM200 796q13 -407 32 -556q33 -200 96 -200q80 0 80 536v8q0 343 -44 604q-32 80 -44 80h-4q-72 -46 -108 -356zM498 1585
h16q6 0 12 -12v-4q0 -85 -68 -108q-7 -4 -20 -4q-74 0 -152 56q-59 24 -84 24q-47 0 -84 -80h-16q-16 7 -16 28q47 92 116 92q56 0 200 -80h32q35 0 52 48l-4 8v16q0 6 16 16z" />
    <glyph glyph-name="Odieresis" unicode="&#xd6;" horiz-adv-x="622" 
d="M304 1308h32q30 0 72 -132q40 -296 40 -592q0 -462 -56 -548q-31 -36 -56 -36h-16q-109 0 -140 348q-8 133 -16 380v76q0 244 76 432q-4 7 -4 16zM200 796q13 -407 32 -556q33 -200 96 -200q80 0 80 536v8q0 343 -44 604q-32 80 -44 80h-4q-72 -46 -108 -356zM233 1596h9
q22 0 31 -28q0 -22 -31 -28h-9q-17 0 -19 26v3q3 27 19 27zM368 1593q20 0 28 -41v-3q-7 -27 -24 -27h-7q-27 6 -27 38v2q0 23 27 31h3z" />
    <glyph glyph-name="multiply" unicode="&#xd7;" horiz-adv-x="821" 
d="M352 1016q19 0 24 -156q149 16 224 16h24q6 0 12 -12v-16q0 -6 -12 -12h-28q-81 0 -216 -16v-4q0 -60 20 -220l-12 -8h-16q-20 0 -32 224h-4q-14 0 -128 -20h-12q-6 0 -12 12v12q0 22 152 36q-4 87 -12 140q0 24 28 24z" />
    <glyph glyph-name="Oslash" unicode="&#xd8;" horiz-adv-x="622" 
d="M304 1308h32q30 0 72 -132q40 -296 40 -592q0 -462 -56 -548q-31 -36 -56 -36h-16q-109 0 -140 348q-8 133 -16 380v76q0 244 76 432q-4 7 -4 16zM200 796q13 -407 32 -556q33 -200 96 -200q80 0 80 536v8q0 343 -44 604q-32 80 -44 80h-4q-72 -46 -108 -356zM554 1236
h12q6 0 16 -16v-8q-30 -35 -120 -268q-160 -314 -388 -932q-15 -12 -28 -12q-16 8 -16 24q32 64 240 608q158 330 264 588z" />
    <glyph glyph-name="Ugrave" unicode="&#xd9;" horiz-adv-x="698" 
d="M201 1408h8q20 -10 20 -32v-20q36 -651 88 -1048q35 -268 108 -268q52 22 52 76q0 157 -32 792q4 116 4 224v96l-4 24l4 8q-4 54 -12 112l16 12h12q17 0 24 -112q0 -8 -4 -8q4 -60 4 -88v-128l-4 -24q0 -4 4 -4q-4 -47 -4 -68v-16q32 -696 32 -820q-11 -116 -104 -116
q-108 0 -144 384q-44 342 -84 1012zM233 1666h14q102 -72 213 -114q11 -11 11 -20q0 -11 -18 -20h-8q-115 37 -212 111q-15 12 -15 29q10 14 15 14z" />
    <glyph glyph-name="Uacute" unicode="&#xda;" horiz-adv-x="698" 
d="M201 1408h8q20 -10 20 -32v-20q36 -651 88 -1048q35 -268 108 -268q52 22 52 76q0 157 -32 792q4 116 4 224v96l-4 24l4 8q-4 54 -12 112l16 12h12q17 0 24 -112q0 -8 -4 -8q4 -60 4 -88v-128l-4 -24q0 -4 4 -4q-4 -47 -4 -68v-16q32 -696 32 -820q-11 -116 -104 -116
q-108 0 -144 384q-44 342 -84 1012zM481 1625h5q27 0 27 -27q0 -13 -97 -55q-86 -44 -107 -57q-4 -2 -10 -2h-5q-24 3 -24 20v2q0 22 146 92q52 27 65 27z" />
    <glyph glyph-name="Ucircumflex" unicode="&#xdb;" horiz-adv-x="698" 
d="M201 1408h8q20 -10 20 -32v-20q36 -651 88 -1048q35 -268 108 -268q52 22 52 76q0 157 -32 792q4 116 4 224v96l-4 24l4 8q-4 54 -12 112l16 12h12q17 0 24 -112q0 -8 -4 -8q4 -60 4 -88v-128l-4 -24q0 -4 4 -4q-4 -47 -4 -68v-16q32 -696 32 -820q-11 -116 -104 -116
q-108 0 -144 384q-44 342 -84 1012zM337 1651q55 -25 151 -102v-17q-5 -12 -21 -12q-5 0 -128 85h-2q-26 -29 -79 -102l-12 -6q-12 4 -17 15v5q2 35 99 134h9z" />
    <glyph glyph-name="Udieresis" unicode="&#xdc;" horiz-adv-x="698" 
d="M201 1408h8q20 -10 20 -32v-20q36 -651 88 -1048q35 -268 108 -268q52 22 52 76q0 157 -32 792q4 116 4 224v96l-4 24l4 8q-4 54 -12 112l16 12h12q17 0 24 -112q0 -8 -4 -8q4 -60 4 -88v-128l-4 -24q0 -4 4 -4q-4 -47 -4 -68v-16q32 -696 32 -820q-11 -116 -104 -116
q-108 0 -144 384q-44 342 -84 1012zM278 1596h9q22 0 31 -28q0 -22 -31 -28h-9q-17 0 -19 26v3q3 27 19 27zM413 1593q20 0 28 -41v-3q-7 -27 -24 -27h-7q-27 6 -27 38v2q0 23 27 31h3z" />
    <glyph glyph-name="Yacute" unicode="&#xdd;" horiz-adv-x="650" 
d="M509 1312h8q6 0 16 -16v-4q-32 -286 -68 -560l4 -24v-12q-14 0 -44 -396q-12 -198 -28 -296l-8 -4h-12q-8 2 -16 20q44 527 64 688q-108 235 -284 472q-32 23 -32 44v8q0 6 16 16h16q13 -5 24 -40q160 -198 264 -420h4q44 381 64 516zM451 1625h5q27 0 27 -27
q0 -13 -97 -55q-86 -44 -107 -57q-4 -2 -10 -2h-5q-24 3 -24 20v2q0 22 146 92q52 27 65 27z" />
    <glyph glyph-name="Thorn" unicode="&#xde;" horiz-adv-x="847" 
d="M123 1427h12q36 0 48 -337q8 -3 12 -3q248 0 408 -130q108 -128 108 -211q0 -85 -64 -207q-124 -134 -228 -164q-62 -33 -192 -78v-3q12 -249 12 -281q0 -16 -20 -25h-16q-16 6 -16 15q0 109 -16 279q-16 0 -28 15v10q0 5 28 18q-15 120 -36 724q0 16 -8 16l4 18
q0 145 -28 316v3q0 17 20 25zM187 1043q20 -498 32 -699v-3q193 58 320 151q82 76 104 161q16 74 16 93q0 86 -120 204q-132 84 -228 84q-18 8 -100 12z" />
    <glyph glyph-name="germandbls" unicode="&#xdf;" horiz-adv-x="894" 
d="M421 1680q162 0 224 -250q12 -51 12 -85q0 -92 -96 -263q-48 -67 -48 -78v-6q0 -44 136 -185q100 -153 100 -266v-7q0 -157 -96 -409q-53 -107 -148 -179q-125 -60 -396 -120h-8q-24 10 -24 36q193 39 380 110q106 51 176 240q64 212 64 332q0 156 -196 357
q-40 57 -40 88v13q0 15 92 159q52 123 52 191q-39 280 -188 280h-12q-106 0 -128 -182q-4 -37 -4 -72v-87q0 -30 36 -338q32 -458 32 -607q0 -105 -48 -121l-4 7q12 63 12 88q-44 705 -80 951v114q0 238 144 283q30 6 56 6z" />
    <glyph glyph-name="agrave" unicode="&#xe0;" horiz-adv-x="739" 
d="M263 1365h4q57 -26 97 -141q111 -344 164 -879q35 -174 35 -305q-5 -13 -27 -13q-16 31 -48 318q-9 31 -40 265l-31 4q-216 -20 -216 -44v-155l-27 -371q9 -14 9 -26q0 -7 -18 -18q-35 0 -35 44q31 422 31 508q-4 55 -4 111q2 288 48 609q19 93 58 93zM263 1312
q-58 -224 -58 -579q-4 0 -4 -97v-13q126 35 243 35v5q0 122 -133 578q-29 63 -48 71zM228 1666h15q102 -72 212 -114q11 -11 11 -20q0 -11 -18 -20h-7q-116 37 -213 111q-14 12 -14 29q9 14 14 14z" />
    <glyph glyph-name="aacute" unicode="&#xe1;" horiz-adv-x="739" 
d="M263 1365h4q57 -26 97 -141q111 -344 164 -879q35 -174 35 -305q-5 -13 -27 -13q-16 31 -48 318q-9 31 -40 265l-31 4q-216 -20 -216 -44v-155l-27 -371q9 -14 9 -26q0 -7 -18 -18q-35 0 -35 44q31 422 31 508q-4 55 -4 111q2 288 48 609q19 93 58 93zM263 1312
q-58 -224 -58 -579q-4 0 -4 -97v-13q126 35 243 35v5q0 122 -133 578q-29 63 -48 71zM432 1625h4q27 0 27 -27q0 -13 -97 -55q-85 -44 -107 -57q-4 -2 -10 -2h-5q-24 3 -24 20v2q0 22 146 92q52 27 66 27z" />
    <glyph glyph-name="acircumflex" unicode="&#xe2;" horiz-adv-x="739" 
d="M263 1365h4q57 -26 97 -141q111 -344 164 -879q35 -174 35 -305q-5 -13 -27 -13q-16 31 -48 318q-9 31 -40 265l-31 4q-216 -20 -216 -44v-155l-27 -371q9 -14 9 -26q0 -7 -18 -18q-35 0 -35 44q31 422 31 508q-4 55 -4 111q2 288 48 609q19 93 58 93zM263 1312
q-58 -224 -58 -579q-4 0 -4 -97v-13q126 35 243 35v5q0 122 -133 578q-29 63 -48 71zM243 1651q55 -25 151 -102v-17q-5 -12 -21 -12q-5 0 -127 85h-3q-26 -29 -79 -102l-11 -6q-12 4 -18 15v5q3 35 99 134h9z" />
    <glyph glyph-name="atilde" unicode="&#xe3;" horiz-adv-x="739" 
d="M264 1365h4q57 -26 97 -141q111 -344 164 -879q35 -174 35 -305q-5 -13 -27 -13q-16 31 -48 318q-9 31 -40 265l-31 4q-216 -20 -216 -44v-155l-27 -371q9 -14 9 -26q0 -7 -18 -18q-35 0 -35 44q31 422 31 508q-4 55 -4 111q2 288 48 609q19 93 58 93zM264 1312
q-58 -224 -58 -579q-4 0 -4 -97v-13q126 35 243 35v5q0 122 -133 578q-29 63 -48 71zM539 1585h16q6 0 12 -12v-4q0 -85 -68 -108q-7 -4 -20 -4q-74 0 -152 56q-59 24 -84 24q-47 0 -84 -80h-16q-16 7 -16 28q47 92 116 92q56 0 200 -80h32q35 0 52 48l-4 8v16q0 6 16 16z
" />
    <glyph glyph-name="adieresis" unicode="&#xe4;" horiz-adv-x="739" 
d="M234 1365h4q57 -26 97 -141q111 -344 164 -879q35 -174 35 -305q-5 -13 -27 -13q-16 31 -48 318q-9 31 -40 265l-31 4q-216 -20 -216 -44v-155l-27 -371q9 -14 9 -26q0 -7 -18 -18q-35 0 -35 44q31 422 31 508q-4 55 -4 111q2 288 48 609q19 93 58 93zM234 1312
q-58 -224 -58 -579q-4 0 -4 -97v-13q126 35 243 35v5q0 122 -133 578q-29 63 -48 71zM200 1596h9q21 0 31 -28q0 -22 -31 -28h-9q-18 0 -19 26v3q3 27 19 27zM334 1593q21 0 29 -41v-3q-8 -27 -24 -27h-8q-26 6 -26 38v2q0 23 26 31h3z" />
    <glyph glyph-name="aring" unicode="&#xe5;" horiz-adv-x="739" 
d="M263 1365h4q57 -26 97 -141q111 -344 164 -879q35 -174 35 -305q-5 -13 -27 -13q-16 31 -48 318q-9 31 -40 265l-31 4q-216 -20 -216 -44v-155l-27 -371q9 -14 9 -26q0 -7 -18 -18q-35 0 -35 44q31 422 31 508q-4 55 -4 111q2 288 48 609q19 93 58 93zM263 1312
q-58 -224 -58 -579q-4 0 -4 -97v-13q126 35 243 35v5q0 122 -133 578q-29 63 -48 71zM295 1708q42 0 56 -77v-14q-11 -61 -54 -61q0 -2 -11 -2q-45 0 -73 45q-11 19 -11 41q0 47 65 61q21 7 28 7zM240 1638v-2q0 -32 46 -43q27 3 27 27v13q-3 19 -21 37h-2q-50 -9 -50 -32z
" />
    <glyph glyph-name="ae" unicode="&#xe6;" horiz-adv-x="861" 
d="M263 1365h4q57 -26 97 -141q111 -344 164 -879q35 -174 35 -305q-5 -13 -27 -13q-16 31 -48 318q-9 31 -40 265l-31 4q-216 -20 -216 -44v-155l-27 -371q9 -14 9 -26q0 -7 -18 -18q-35 0 -35 44q31 422 31 508q-4 55 -4 111q2 288 48 609q19 93 58 93zM263 1312
q-58 -224 -58 -579q-4 0 -4 -97v-13q126 35 243 35v5q0 122 -133 578q-29 63 -48 71zM556 1392q41 -16 92 -16q80 4 108 4l8 -12v-16q0 -6 -12 -12q-22 0 -112 -4l-48 4q12 -77 12 -220q-24 -349 -24 -412q0 -10 168 -24l12 -16v-8q-2 -8 -20 -16q-63 12 -164 12
q-24 -390 -24 -536v-72q1 -8 8 -8h4l152 16v-4l8 4h16q6 0 16 -16v-8q0 -6 -16 -16h-40l-124 -16q-8 4 -12 4l-8 -4q-41 0 -44 48v68q0 168 52 1004v16q0 186 -24 240q0 6 16 16z" />
    <glyph glyph-name="ccedilla" unicode="&#xe7;" horiz-adv-x="636" 
d="M338 1356h28q72 -13 72 -52q0 -6 -16 -16h-16q-26 32 -56 32q-100 -35 -100 -64q-80 -152 -80 -416v-68q0 -178 48 -428q29 -183 80 -248q62 -54 108 -56q59 0 128 88h12q6 0 12 -12v-8q0 -36 -88 -92q-37 -16 -68 -16h-4q-59 7 -124 64q-71 56 -124 456q-20 86 -20 284
v24q7 405 132 500q59 28 76 28zM356 40q15 0 21 -15q-3 -36 -3 -62v-18q1 -5 5 -5h51q52 0 67 -54v-10q0 -84 -97 -118l-16 -2q-43 4 -43 15v5q1 6 23 13q12 14 64 46q23 34 23 46q0 16 -18 16h-28q-6 0 -10 -3q-67 0 -67 67q0 79 28 79z" />
    <glyph glyph-name="egrave" unicode="&#xe8;" horiz-adv-x="575" 
d="M202 1392q41 -16 92 -16q80 4 108 4l8 -12v-16q0 -6 -12 -12q-22 0 -112 -4l-48 4q12 -77 12 -220q-24 -349 -24 -412q0 -10 168 -24l12 -16v-8q-2 -8 -20 -16q-63 12 -164 12q-24 -390 -24 -536v-72q1 -8 8 -8h4l152 16v-4l8 4h16q6 0 16 -16v-8q0 -6 -16 -16h-40
l-124 -16q-8 4 -12 4l-8 -4q-41 0 -44 48v68q0 168 52 1004v16q0 186 -24 240q0 6 16 16zM166 1666h14q102 -72 213 -114q11 -11 11 -20q0 -11 -18 -20h-8q-115 37 -212 111q-15 12 -15 29q10 14 15 14z" />
    <glyph glyph-name="eacute" unicode="&#xe9;" horiz-adv-x="575" 
d="M195 1392q41 -16 92 -16q80 4 108 4l8 -12v-16q0 -6 -12 -12q-22 0 -112 -4l-48 4q12 -77 12 -220q-24 -349 -24 -412q0 -10 168 -24l12 -16v-8q-2 -8 -20 -16q-63 12 -164 12q-24 -390 -24 -536v-72q1 -8 8 -8h4l152 16v-4l8 4h16q6 0 16 -16v-8q0 -6 -16 -16h-40
l-124 -16q-8 4 -12 4l-8 -4q-41 0 -44 48v68q0 168 52 1004v16q0 186 -24 240q0 6 16 16zM407 1625h5q27 0 27 -27q0 -13 -97 -55q-86 -44 -107 -57q-4 -2 -10 -2h-5q-24 3 -24 20v2q0 22 146 92q52 27 65 27z" />
    <glyph glyph-name="ecircumflex" unicode="&#xea;" horiz-adv-x="575" 
d="M192 1392q41 -16 92 -16q80 4 108 4l8 -12v-16q0 -6 -12 -12q-22 0 -112 -4l-48 4q12 -77 12 -220q-24 -349 -24 -412q0 -10 168 -24l12 -16v-8q-2 -8 -20 -16q-63 12 -164 12q-24 -390 -24 -536v-72q1 -8 8 -8h4l152 16v-4l8 4h16q6 0 16 -16v-8q0 -6 -16 -16h-40
l-124 -16q-8 4 -12 4l-8 -4q-41 0 -44 48v68q0 168 52 1004v16q0 186 -24 240q0 6 16 16zM259 1651q56 -25 151 -102v-17q-4 -12 -20 -12q-6 0 -128 85h-3q-25 -29 -78 -102l-12 -6q-12 4 -17 15v5q2 35 98 134h9z" />
    <glyph glyph-name="edieresis" unicode="&#xeb;" horiz-adv-x="575" 
d="M189 1392q41 -16 92 -16q80 4 108 4l8 -12v-16q0 -6 -12 -12q-22 0 -112 -4l-48 4q12 -77 12 -220q-24 -349 -24 -412q0 -10 168 -24l12 -16v-8q-2 -8 -20 -16q-63 12 -164 12q-24 -390 -24 -536v-72q1 -8 8 -8h4l152 16v-4l8 4h16q6 0 16 -16v-8q0 -6 -16 -16h-40
l-124 -16q-8 4 -12 4l-8 -4q-41 0 -44 48v68q0 168 52 1004v16q0 186 -24 240q0 6 16 16zM199 1596h9q21 0 31 -28q0 -22 -31 -28h-9q-18 0 -20 26v3q4 27 20 27zM333 1593q21 0 28 -41v-3q-7 -27 -23 -27h-8q-26 6 -26 38v2q0 23 26 31h3z" />
    <glyph glyph-name="igrave" unicode="&#xec;" horiz-adv-x="424" 
d="M274 1360h8q28 0 28 -212v-52q0 -78 -24 -404q0 -16 4 -32q-4 -209 -4 -332v-260q0 -8 8 -40q-5 -28 -16 -28h-16q-16 0 -16 108q0 694 24 956v112q0 93 -12 168q0 6 16 16zM160 1666h14q102 -72 213 -114q11 -11 11 -20q0 -11 -18 -20h-8q-115 37 -212 111
q-15 12 -15 29q10 14 15 14z" />
    <glyph glyph-name="iacute" unicode="&#xed;" horiz-adv-x="424" 
d="M213 1360h8q28 0 28 -212v-52q0 -78 -24 -404q0 -16 4 -32q-4 -209 -4 -332v-260q0 -8 8 -40q-5 -28 -16 -28h-16q-16 0 -16 108q0 694 24 956v112q0 93 -12 168q0 6 16 16zM347 1625h5q27 0 27 -27q0 -13 -97 -55q-86 -44 -107 -57q-4 -2 -10 -2h-5q-24 3 -24 20v2
q0 22 146 92q52 27 65 27z" />
    <glyph glyph-name="icircumflex" unicode="&#xee;" horiz-adv-x="424" 
d="M206 1360h8q28 0 28 -212v-52q0 -78 -24 -404q0 -16 4 -32q-4 -209 -4 -332v-260q0 -8 8 -40q-5 -28 -16 -28h-16q-16 0 -16 108q0 694 24 956v112q0 93 -12 168q0 6 16 16zM196 1651q55 -25 151 -102v-17q-5 -12 -21 -12q-5 0 -128 85h-2q-26 -29 -79 -102l-12 -6
q-12 4 -17 15v5q2 35 99 134h9z" />
    <glyph glyph-name="idieresis" unicode="&#xef;" horiz-adv-x="424" 
d="M173 1360h8q28 0 28 -212v-52q0 -78 -24 -404q0 -16 4 -32q-4 -209 -4 -332v-260q0 -8 8 -40q-5 -28 -16 -28h-16q-16 0 -16 108q0 694 24 956v112q0 93 -12 168q0 6 16 16zM104 1596h9q22 0 31 -28q0 -22 -31 -28h-9q-17 0 -19 26v3q3 27 19 27zM239 1593q20 0 28 -41
v-3q-7 -27 -24 -27h-7q-27 6 -27 38v2q0 23 27 31h3z" />
    <glyph glyph-name="eth" unicode="&#xf0;" horiz-adv-x="612" 
d="M139 1388h24q19 -20 96 -44q114 -71 160 -200q40 -134 40 -212v-120q0 -16 4 -32q-27 -395 -72 -492q0 -44 -84 -212q-52 -76 -64 -76q-28 6 -28 16v16q20 31 20 56q-8 16 -8 24q4 12 8 12q-4 52 -4 84q0 992 -108 1156v8q0 6 16 16zM187 1328v-4q84 -258 84 -1112v-16
q4 -80 4 -88q68 102 116 344q20 132 32 324q0 314 -72 416q-44 92 -164 136zM301 767q420 -24 552 -24h16q6 0 12 -12v-12l-12 -16q-208 4 -568 24q-362 -4 -384 -8q-60 4 -60 20v8q0 6 16 16q26 0 40 -4q274 8 388 8z" />
    <glyph glyph-name="ntilde" unicode="&#xf1;" horiz-adv-x="698" 
d="M408 1364h12l16 -16q-8 -44 -8 -100q0 -102 88 -752l36 -408q-6 -20 -28 -20q-20 0 -76 284q-36 130 -140 564q-60 172 -88 304h-4l4 -48q0 -80 -16 -488q8 -367 32 -660v-8q-6 -16 -28 -16l-16 12l4 36q-24 261 -32 632q16 398 16 480q0 19 -4 92q4 8 4 12q-4 16 -4 32
q0 64 20 64q37 0 60 -132q136 -450 208 -788q24 -88 24 -96h4q-20 193 -92 752q-8 56 -12 156q4 77 4 100zM550 1585h16q6 0 12 -12v-4q0 -85 -68 -108q-7 -4 -20 -4q-74 0 -152 56q-59 24 -84 24q-47 0 -84 -80h-16q-16 7 -16 28q47 92 116 92q56 0 200 -80h32q35 0 52 48
l-4 8v16q0 6 16 16z" />
    <glyph glyph-name="ograve" unicode="&#xf2;" horiz-adv-x="622" 
d="M304 1308h32q30 0 72 -132q40 -296 40 -592q0 -462 -56 -548q-31 -36 -56 -36h-16q-109 0 -140 348q-8 133 -16 380v76q0 244 76 432q-4 7 -4 16zM200 796q13 -407 32 -556q33 -200 96 -200q80 0 80 536v8q0 343 -44 604q-32 80 -44 80h-4q-72 -46 -108 -356zM188 1666
h14q102 -72 213 -114q11 -11 11 -20q0 -11 -18 -20h-8q-115 37 -212 111q-15 12 -15 29q10 14 15 14z" />
    <glyph glyph-name="oacute" unicode="&#xf3;" horiz-adv-x="622" 
d="M304 1308h32q30 0 72 -132q40 -296 40 -592q0 -462 -56 -548q-31 -36 -56 -36h-16q-109 0 -140 348q-8 133 -16 380v76q0 244 76 432q-4 7 -4 16zM200 796q13 -407 32 -556q33 -200 96 -200q80 0 80 536v8q0 343 -44 604q-32 80 -44 80h-4q-72 -46 -108 -356zM436 1625h5
q27 0 27 -27q0 -13 -97 -55q-86 -44 -107 -57q-4 -2 -10 -2h-5q-24 3 -24 20v2q0 22 146 92q52 27 65 27z" />
    <glyph glyph-name="ocircumflex" unicode="&#xf4;" horiz-adv-x="622" 
d="M304 1308h32q30 0 72 -132q40 -296 40 -592q0 -462 -56 -548q-31 -36 -56 -36h-16q-109 0 -140 348q-8 133 -16 380v76q0 244 76 432q-4 7 -4 16zM200 796q13 -407 32 -556q33 -200 96 -200q80 0 80 536v8q0 343 -44 604q-32 80 -44 80h-4q-72 -46 -108 -356zM291 1651
q56 -25 151 -102v-17q-4 -12 -20 -12q-6 0 -128 85h-3q-25 -29 -78 -102l-12 -6q-12 4 -17 15v5q2 35 98 134h9z" />
    <glyph glyph-name="otilde" unicode="&#xf5;" horiz-adv-x="622" 
d="M304 1308h32q30 0 72 -132q40 -296 40 -592q0 -462 -56 -548q-31 -36 -56 -36h-16q-109 0 -140 348q-8 133 -16 380v76q0 244 76 432q-4 7 -4 16zM200 796q13 -407 32 -556q33 -200 96 -200q80 0 80 536v8q0 343 -44 604q-32 80 -44 80h-4q-72 -46 -108 -356zM498 1585
h16q6 0 12 -12v-4q0 -85 -68 -108q-7 -4 -20 -4q-74 0 -152 56q-59 24 -84 24q-47 0 -84 -80h-16q-16 7 -16 28q47 92 116 92q56 0 200 -80h32q35 0 52 48l-4 8v16q0 6 16 16z" />
    <glyph glyph-name="odieresis" unicode="&#xf6;" horiz-adv-x="622" 
d="M304 1308h32q30 0 72 -132q40 -296 40 -592q0 -462 -56 -548q-31 -36 -56 -36h-16q-109 0 -140 348q-8 133 -16 380v76q0 244 76 432q-4 7 -4 16zM200 796q13 -407 32 -556q33 -200 96 -200q80 0 80 536v8q0 343 -44 604q-32 80 -44 80h-4q-72 -46 -108 -356zM234 1596h9
q21 0 31 -28q0 -22 -31 -28h-9q-18 0 -20 26v3q4 27 20 27zM368 1593q21 0 28 -41v-3q-7 -27 -23 -27h-8q-26 6 -26 38v2q0 23 26 31h3z" />
    <glyph glyph-name="divide" unicode="&#xf7;" horiz-adv-x="821" 
d="M352 1016q19 0 24 -156q149 16 224 16h24q6 0 12 -12v-16q0 -6 -12 -12h-28q-81 0 -216 -16v-4q0 -60 20 -220l-12 -8h-16q-20 0 -32 224h-4q-14 0 -128 -20h-12q-6 0 -12 12v12q0 22 152 36q-4 87 -12 140q0 24 28 24z" />
    <glyph glyph-name="oslash" unicode="&#xf8;" horiz-adv-x="622" 
d="M304 1308h32q30 0 72 -132q40 -296 40 -592q0 -462 -56 -548q-31 -36 -56 -36h-16q-109 0 -140 348q-8 133 -16 380v76q0 244 76 432q-4 7 -4 16zM200 796q13 -407 32 -556q33 -200 96 -200q80 0 80 536v8q0 343 -44 604q-32 80 -44 80h-4q-72 -46 -108 -356zM554 1236
h12q6 0 16 -16v-8q-30 -35 -120 -268q-160 -314 -388 -932q-15 -12 -28 -12q-16 8 -16 24q32 64 240 608q158 330 264 588z" />
    <glyph glyph-name="ugrave" unicode="&#xf9;" horiz-adv-x="698" 
d="M201 1408h8q20 -10 20 -32v-20q36 -651 88 -1048q35 -268 108 -268q52 22 52 76q0 157 -32 792q4 116 4 224v96l-4 24l4 8q-4 54 -12 112l16 12h12q17 0 24 -112q0 -8 -4 -8q4 -60 4 -88v-128l-4 -24q0 -4 4 -4q-4 -47 -4 -68v-16q32 -696 32 -820q-11 -116 -104 -116
q-108 0 -144 384q-44 342 -84 1012zM233 1666h14q102 -72 213 -114q11 -11 11 -20q0 -11 -18 -20h-8q-115 37 -212 111q-15 12 -15 29q10 14 15 14z" />
    <glyph glyph-name="uacute" unicode="&#xfa;" horiz-adv-x="698" 
d="M201 1408h8q20 -10 20 -32v-20q36 -651 88 -1048q35 -268 108 -268q52 22 52 76q0 157 -32 792q4 116 4 224v96l-4 24l4 8q-4 54 -12 112l16 12h12q17 0 24 -112q0 -8 -4 -8q4 -60 4 -88v-128l-4 -24q0 -4 4 -4q-4 -47 -4 -68v-16q32 -696 32 -820q-11 -116 -104 -116
q-108 0 -144 384q-44 342 -84 1012zM481 1625h5q27 0 27 -27q0 -13 -97 -55q-86 -44 -107 -57q-4 -2 -10 -2h-5q-24 3 -24 20v2q0 22 146 92q52 27 65 27z" />
    <glyph glyph-name="ucircumflex" unicode="&#xfb;" horiz-adv-x="698" 
d="M201 1408h8q20 -10 20 -32v-20q36 -651 88 -1048q35 -268 108 -268q52 22 52 76q0 157 -32 792q4 116 4 224v96l-4 24l4 8q-4 54 -12 112l16 12h12q17 0 24 -112q0 -8 -4 -8q4 -60 4 -88v-128l-4 -24q0 -4 4 -4q-4 -47 -4 -68v-16q32 -696 32 -820q-11 -116 -104 -116
q-108 0 -144 384q-44 342 -84 1012zM336 1651q56 -25 151 -102v-17q-4 -12 -20 -12q-6 0 -128 85h-3q-25 -29 -78 -102l-12 -6q-12 4 -17 15v5q2 35 98 134h9z" />
    <glyph glyph-name="udieresis" unicode="&#xfc;" horiz-adv-x="698" 
d="M201 1408h8q20 -10 20 -32v-20q36 -651 88 -1048q35 -268 108 -268q52 22 52 76q0 157 -32 792q4 116 4 224v96l-4 24l4 8q-4 54 -12 112l16 12h12q17 0 24 -112q0 -8 -4 -8q4 -60 4 -88v-128l-4 -24q0 -4 4 -4q-4 -47 -4 -68v-16q32 -696 32 -820q-11 -116 -104 -116
q-108 0 -144 384q-44 342 -84 1012zM279 1596h9q21 0 31 -28q0 -22 -31 -28h-9q-18 0 -20 26v3q4 27 20 27zM413 1593q21 0 28 -41v-3q-7 -27 -23 -27h-8q-26 6 -26 38v2q0 23 26 31h3z" />
    <glyph glyph-name="yacute" unicode="&#xfd;" horiz-adv-x="650" 
d="M509 1312h8q6 0 16 -16v-4q-32 -286 -68 -560l4 -24v-12q-14 0 -44 -396q-12 -198 -28 -296l-8 -4h-12q-8 2 -16 20q44 527 64 688q-108 235 -284 472q-32 23 -32 44v8q0 6 16 16h16q13 -5 24 -40q160 -198 264 -420h4q44 381 64 516zM451 1625h5q27 0 27 -27
q0 -13 -97 -55q-86 -44 -107 -57q-4 -2 -10 -2h-5q-24 3 -24 20v2q0 22 146 92q52 27 65 27z" />
    <glyph glyph-name="thorn" unicode="&#xfe;" horiz-adv-x="847" 
d="M123 1427h12q36 0 48 -337q8 -3 12 -3q248 0 408 -130q108 -128 108 -211q0 -85 -64 -207q-124 -134 -228 -164q-62 -33 -192 -78v-3q12 -249 12 -281q0 -16 -20 -25h-16q-16 6 -16 15q0 109 -16 279q-16 0 -28 15v10q0 5 28 18q-15 120 -36 724q0 16 -8 16l4 18
q0 145 -28 316v3q0 17 20 25zM187 1043q20 -498 32 -699v-3q193 58 320 151q82 76 104 161q16 74 16 93q0 86 -120 204q-132 84 -228 84q-18 8 -100 12z" />
    <glyph glyph-name="ydieresis" unicode="&#xff;" horiz-adv-x="650" 
d="M509 1312h8q6 0 16 -16v-4q-32 -286 -68 -560l4 -24v-12q-14 0 -44 -396q-12 -198 -28 -296l-8 -4h-12q-8 2 -16 20q44 527 64 688q-108 235 -284 472q-32 23 -32 44v8q0 6 16 16h16q13 -5 24 -40q160 -198 264 -420h4q44 381 64 516zM262 1556h9q22 0 31 -28
q0 -22 -31 -28h-9q-17 0 -19 26v3q3 27 19 27zM397 1553q20 0 28 -41v-3q-7 -27 -24 -27h-7q-27 6 -27 38v2q0 23 27 31h3z" />
    <glyph glyph-name="dotlessi" unicode="&#x131;" horiz-adv-x="514" 
d="M328 223q0 -173 100 -173h46v-50h-442v50h46q100 0 100 173v432q0 77 -111 77h-48v44q222 69 261 182h48v-735z" />
    <glyph glyph-name="circumflex" unicode="&#x2c6;" horiz-adv-x="1024" 
d="M374 1241q55 -25 151 -102v-17q-5 -12 -21 -12q-5 0 -128 85h-2q-26 -29 -79 -102l-12 -6q-12 4 -17 15v5q2 35 99 134h9z" />
    <glyph glyph-name="caron" unicode="&#x2c7;" horiz-adv-x="1024" 
d="M221 1434h58l233 -214l233 214h58l-232 -356h-118z" />
    <glyph glyph-name="uni02C9" unicode="&#x2c9;" horiz-adv-x="1024" 
d="M254 1195v125h516v-125h-516z" />
    <glyph glyph-name="breve" unicode="&#x2d8;" horiz-adv-x="1024" 
d="M219 1349h51q17 -73 75 -107t167 -34t166 33.5t74 107.5h51q-20 -133 -94 -201.5t-197 -68.5q-122 0 -197 69t-96 201z" />
    <glyph glyph-name="dotaccent" unicode="&#x2d9;" horiz-adv-x="1024" 
d="M422 1289l69 72q6 6 13 9t14 3q6 0 12.5 -3t12.5 -9l71 -76q5 -4 7 -10t2 -14q-1 -9 -3 -15t-8 -12l-71 -76q-12 -11 -16 -13.5t-7 -2.5q-10 0 -16.5 2.5t-10.5 8.5l-75 87q-4 4 -6 9.5t-2 13.5q0 6 3 12.5t11 13.5z" />
    <glyph glyph-name="ring" unicode="&#x2da;" horiz-adv-x="1024" 
d="M345 1298q42 0 56 -77v-14q-11 -61 -54 -61q0 -2 -11 -2q-45 0 -73 45q-11 19 -11 41q0 47 66 61q20 7 27 7zM291 1228v-2q0 -32 45 -43q27 3 27 27v13q-3 19 -20 37h-3q-49 -9 -49 -32z" />
    <glyph glyph-name="ogonek" unicode="&#x2db;" horiz-adv-x="1024" 
d="M640 0q-71 -62 -110.5 -119.5t-39.5 -112.5q0 -47 27 -75t73 -28q40 0 69.5 15.5t49.5 48.5l28 -16q-36 -63 -90.5 -97t-119.5 -34q-70 0 -114 35.5t-44 90.5q0 76 60.5 156.5t161.5 135.5h49z" />
    <glyph glyph-name="tilde" unicode="&#x2dc;" horiz-adv-x="1024" 
d="M693 1175h16q6 0 12 -12v-4q0 -85 -68 -108q-7 -4 -20 -4q-74 0 -152 56q-59 24 -84 24q-47 0 -84 -80h-16q-16 7 -16 28q47 92 116 92q56 0 200 -80h32q35 0 52 48l-4 8v16q0 6 16 16z" />
    <glyph glyph-name="hungarumlaut" unicode="&#x2dd;" horiz-adv-x="1024" 
d="M217 1079l144 273q24 44 45.5 63t46.5 19q28 0 48 -20t20 -47q0 -16 -10.5 -35t-30.5 -41l-205 -212h-58zM502 1079l144 273q24 44 45.5 63t46.5 19q28 0 48 -20t20 -47q0 -16 -10.5 -35t-30.5 -41l-205 -212h-58z" />
    <glyph glyph-name="endash" unicode="&#x2013;" horiz-adv-x="1108" 
d="M56 419v120h996v-120h-996z" />
    <glyph glyph-name="emdash" unicode="&#x2014;" horiz-adv-x="2048" 
d="M0 419v120h2048v-120h-2048z" />
    <glyph glyph-name="quoteleft" unicode="&#x2018;" horiz-adv-x="346" 
d="M189 1367h12q6 0 16 -16q-44 -195 -76 -260l-8 -4h-8q-6 0 -16 16q36 120 68 256z" />
    <glyph glyph-name="quoteright" unicode="&#x2019;" horiz-adv-x="346" 
d="M189 1367h12q6 0 16 -16q-44 -195 -76 -260l-8 -4h-8q-6 0 -16 16q36 120 68 256z" />
    <glyph glyph-name="quotesinglbase" unicode="&#x201a;" horiz-adv-x="557" 
d="M238 281q44 0 88.5 -65.5t44.5 -151.5q0 -109 -71 -226.5t-139 -117.5v43q73 43 87 190q0 119 -129 161v42z" />
    <glyph glyph-name="quotedblleft" unicode="&#x201c;" horiz-adv-x="672" 
d="M376 1526h8q32 0 32 -224v-36q0 -3 4 -24q0 -24 -28 -24q-20 0 -20 252q-4 0 -12 40q0 6 16 16zM244 1510q32 -4 32 -32q-10 -256 -40 -256h-12q-6 0 -12 12q16 76 24 232l-12 20v8q8 16 20 16z" />
    <glyph glyph-name="quotedblright" unicode="&#x201d;" horiz-adv-x="672" 
d="M376 1526h8q32 0 32 -224v-36q0 -3 4 -24q0 -24 -28 -24q-20 0 -20 252q-4 0 -12 40q0 6 16 16zM244 1510q32 -4 32 -32q-10 -256 -40 -256h-12q-6 0 -12 12q16 76 24 232l-12 20v8q8 16 20 16z" />
    <glyph glyph-name="quotedblbase" unicode="&#x201e;" horiz-adv-x="910" 
d="M238 281q44 0 88.5 -65.5t44.5 -151.5q0 -109 -71 -226.5t-139 -117.5v43q73 43 87 190q0 119 -129 161v42zM591 281q44 0 88.5 -65.5t44.5 -151.5q0 -109 -71 -226.5t-139 -117.5v43q73 43 87 190q0 119 -129 161v42z" />
    <glyph glyph-name="dagger" unicode="&#x2020;" 
d="M486 1022q-8 97 -54 178q-57 101 -57 129q0 49 36 78.5t96 29.5q57 0 94.5 -27.5t37.5 -71.5q0 -32 -55 -137q-46 -85 -55 -179q96 8 177 54q101 57 129 57q49 0 79 -36t30 -96q0 -57 -27.5 -94.5t-72.5 -37.5q-32 0 -136 55q-85 46 -179 57q8 -176 110 -277
q-106 -460 -112 -974h-38q-6 514 -114 974q102 101 111 277q-96 -10 -178 -55q-101 -57 -129 -57q-49 0 -78.5 36t-29.5 96q0 57 27.5 94.5t71.5 37.5q32 0 137 -56q85 -46 179 -55z" />
    <glyph glyph-name="daggerdbl" unicode="&#x2021;" 
d="M528 186q94 11 179 57q104 55 136 55q45 0 72.5 -37.5t27.5 -94.5q0 -60 -30 -96t-79 -36q-28 0 -129 57q-81 46 -177 54q9 -94 55 -179q55 -105 55 -137q0 -44 -37.5 -71.5t-94.5 -27.5q-60 0 -96 29.5t-36 78.5q0 28 57 129q46 81 54 178q-94 -9 -179 -55
q-105 -56 -137 -56q-44 0 -71.5 37.5t-27.5 94.5q0 60 29.5 96t78.5 36q28 0 129 -57q82 -45 178 -55q-9 226 -111 398q102 171 111 397q-96 -10 -178 -55q-101 -57 -129 -57q-49 0 -78.5 36t-29.5 96q0 57 27.5 94.5t71.5 37.5q32 0 137 -56q85 -46 179 -55q-8 97 -54 178
q-57 101 -57 129q0 49 36 78.5t96 29.5q57 0 94.5 -27.5t37.5 -71.5q0 -32 -55 -137q-46 -85 -55 -179q96 8 177 54q101 57 129 57q49 0 79 -36t30 -96q0 -57 -27.5 -94.5t-72.5 -37.5q-32 0 -136 55q-85 46 -179 57q8 -226 110 -397q-102 -172 -110 -398z" />
    <glyph glyph-name="bullet" unicode="&#x2022;" horiz-adv-x="1024" 
d="M216 718q0 123 87 209t210 86q122 0 208.5 -86.5t86.5 -208.5t-87.5 -209.5t-209.5 -87.5q-123 0 -209 87t-86 210z" />
    <glyph glyph-name="ellipsis" unicode="&#x2026;" horiz-adv-x="2048" 
d="M145 167l82 84q15 14 29 14q13 0 31 -16l80 -86q12 -16 12 -29q0 -15 -14 -31l-80 -88q-20 -20 -29 -20q-16 0 -29 14l-88 101q-10 13 -10 26q0 15 16 31zM828 167l82 84q15 14 29 14q13 0 31 -16l80 -86q12 -16 12 -29q0 -15 -14 -31l-80 -88q-20 -20 -29 -20
q-16 0 -29 14l-88 101q-10 13 -10 26q0 15 16 31zM1511 167l82 84q15 14 29 14q13 0 31 -16l80 -86q12 -16 12 -29q0 -15 -14 -31l-80 -88q-20 -20 -29 -20q-16 0 -29 14l-88 101q-10 13 -10 26q0 15 16 31z" />
    <glyph glyph-name="guilsinglleft" unicode="&#x2039;" horiz-adv-x="631" 
d="M174 479l342 303h14v-37l-205 -266l205 -266v-37h-14z" />
    <glyph glyph-name="guilsinglright" unicode="&#x203a;" horiz-adv-x="631" 
d="M115 176h-14v37l205 266l-205 266v37h14l342 -303z" />
    <glyph glyph-name="fraction" unicode="&#x2044;" horiz-adv-x="342" 
d="M-342 -29l940 1461h84l-938 -1461h-86z" />
    <glyph glyph-name="fraction" unicode="&#x2215;" horiz-adv-x="342" 
d="M-342 -29l940 1461h84l-938 -1461h-86z" />
    <glyph glyph-name="franc" unicode="&#x20a3;" 
d="M247 357h-194v60h194v732q0 235 -103 235h-96v50h915l103 -231h-49q-59 182 -190 182l-316 -1q-102 0 -102 -235v-352h361q100 0 100 63v58h50v-342h-50v60q0 62 -100 62h-361v-281h194v-60h-194v-72q0 -235 102 -235h97v-50h-560v50h96q103 0 103 235v72z" />
    <glyph glyph-name="lira" unicode="&#x20a4;" horiz-adv-x="842" 
d="M323 1307q60 0 60 -20v-8q0 -6 -16 -16q-2 0 -52 4q-88 -56 -88 -192v-24q0 -106 56 -364q153 -20 204 -32l8 -12v-8q-8 -16 -20 -16q-64 12 -192 24v-40q0 -63 -60 -224q-60 -197 -60 -236v-16q36 24 100 24q39 0 440 -56q36 6 36 32l8 4h16q6 0 12 -12q-6 -60 -60 -60
h-32l-412 52h-16q-73 0 -88 -52l-8 -4h-16q-20 0 -20 76v4q0 78 120 436v84q-104 21 -104 48q0 21 20 32h8q29 -35 72 -40v4q-52 245 -52 372q0 176 120 236h16z" />
    <glyph glyph-name="peseta" unicode="&#x20a7;" horiz-adv-x="2028" 
d="M409 1384v-662q3 -9 7 -17q41 -102 108 -153q57 -44 116 -44q10 0 19 1q68 8 127 75t87 177q22 87 22 179q0 24 -1 47q-7 116 -49.5 218.5t-108.5 144.5q-56 35 -112 35q-10 0 -21 -1h-194zM1496 908h-179v-685q0 -81 34 -119q28 -31 81 -37l-71 192l49 1
q55 -130 114 -174q57 -44 127 -44h7q92 0 151 52q59 53 59 136q0 102 -259 226q-101 52 -144 112t-43 145q0 121 73 194zM1039 910q-7 -101 -48 -194q-50 -114 -141 -177.5t-190 -63.5q-100 0 -191 64q-33 22 -60 51v-305q0 -235 102 -235h97v-50h-560v50h96q103 0 103 235
v864q0 235 -103 235h-96v50h618q92 -2 181 -62q91 -62 143 -177q50 -113 51 -237h10q216 0 216 355h50v-355h259q42 19 110 20h2q54 0 133.5 -13.5t79.5 -33.5v-159h-42q-4 66 -65.5 108t-133.5 42q-64 0 -102.5 -36.5t-38.5 -96.5q0 -108 235 -220q122 -55 167.5 -117.5
t45.5 -153.5q0 -140 -83 -231q-102 -84 -228 -86q-58 0 -105 11q-28 6 -56 6q-18 0 -36 -3q-28 -5 -59 -5q-124 0 -173.5 57t-57.5 176h-1v687h-129z" />
    <glyph glyph-name="Euro" unicode="&#x20ac;" horiz-adv-x="746" 
d="M523 1366q52 0 52 -32q0 -11 -20 -20l-24 12h-4q-149 0 -260 -392q-20 -120 -20 -140h272q6 0 12 -12v-12q-5 -16 -36 -16h-244q-8 -1 -8 -8v-52q1 -8 8 -8q202 -4 268 -4l28 4q18 -8 20 -16v-12q-8 -16 -20 -16q-58 0 -304 4v-4q0 -119 60 -324q96 -115 152 -128
q59 -30 220 -72l8 -12v-12q0 -12 -16 -12q-249 52 -340 144q-73 77 -92 184q-16 73 -36 240q-124 0 -124 44q0 6 16 16q46 -20 108 -20h4v24l4 40q-128 9 -128 36q-4 7 -4 20l16 12h8q0 -18 108 -28q0 151 112 400q97 172 204 172z" />
    <glyph glyph-name="uni20B1" unicode="&#x20b1;" horiz-adv-x="917" 
d="M288 1196q172 0 232 -100q53 -52 84 -176q140 -8 140 -28v-8q-5 -16 -20 -24h-20q-14 16 -60 16h-40v-16q0 -55 -12 -116q27 -8 84 -8l8 -12v-12q-2 -8 -20 -16l-84 8q0 -61 -160 -196q-15 0 -92 -56q16 -207 16 -388v-4q0 -14 4 -36q-8 -24 -16 -24h-12q-16 5 -16 36v40
q0 257 -20 388q0 9 4 16q-4 48 -8 248q0 15 -60 20q-91 27 -104 48v16q7 16 28 16q25 -29 92 -40q18 -8 40 -8v112q-144 16 -144 44v4q0 31 20 40h8q10 0 20 -32q33 -8 96 -16v212l-4 40zM320 1156q-4 -8 -8 -44q4 -88 4 -156v-24q40 -4 60 -4h56q42 0 128 -4q0 49 -76 156
q-65 76 -164 76zM316 892v-120q144 -20 236 -20q12 47 12 108v24zM316 732q0 -4 4 -12q4 -145 4 -220q95 53 144 104q60 60 72 104q-62 4 -224 24z" />
    <glyph glyph-name="afii61352" unicode="&#x2116;" horiz-adv-x="2271" 
 />
    <glyph glyph-name="trademark" unicode="&#x2122;" horiz-adv-x="931" 
d="M629 1333h16q46 0 60 -392l-8 -4h-16q-20 11 -20 40q0 175 -24 292h-4q-20 -78 -20 -188v-16q0 -6 -12 -12h-12q-21 0 -36 156q-5 0 -8 28h-4q-12 -106 -16 -272q-15 -12 -28 -12l-16 12q13 231 32 332q0 20 20 32h12q19 0 36 -80h8q0 49 40 84zM441 1305q20 -6 20 -28
q0 -6 -16 -16l-20 4q-75 -8 -84 -12q24 -42 40 -300q-6 -16 -12 -16h-20q-3 0 -12 12l4 20q-20 272 -44 272v4h-4l-40 -12h-12q-6 0 -16 16v8q9 32 216 48z" />
    <glyph glyph-name="partialdiff" unicode="&#x2202;" 
d="M232 537q0 -41 5 -79q14 -122 61.5 -230t118.5 -165q64 -53 128 -53q6 0 13 1q70 5 127.5 70.5t80.5 179.5q16 73 16 149q0 42 -5 85q-14 122 -62.5 231.5t-119.5 165.5q-65 50 -128 50h-11q-68 -5 -126 -69.5t-82 -178.5q-16 -84 -16 -157zM937 477q0 -132 -56.5 -251
t-159 -185t-214.5 -66t-214.5 66t-159 185t-56.5 251q0 131 58 251t161 185t211 65q109 0 212 -65q29 -18 54 -41q-84 235 -233.5 377t-326.5 155v55q306 0 515 -285t209 -697z" />
    <glyph glyph-name="Delta" unicode="&#x2206;" horiz-adv-x="1081" 
d="M514 1195l-406 -1072h801zM547 1434l526 -1434h-1067z" />
    <glyph glyph-name="product" unicode="&#x220f;" horiz-adv-x="1515" 
d="M511 1384q-102 0 -102 -235v-1281q0 -235 102 -235h97v-51h-560v51h96q103 0 103 235v1281q0 235 -103 235h-96v50h1419v-50h-97q-102 0 -102 -235v-1281q0 -235 102 -235h97v-50h-560v50h96q103 0 103 235v1281q0 235 -103 235h-492z" />
    <glyph glyph-name="summation" unicode="&#x2211;" horiz-adv-x="1206" 
d="M1059 548l-788 -914h635q130 0 189 182h49l-103 -232h-921v50q62 0 106 53l663 781l-663 859q-44 57 -106 57v50h921l103 -232h-49q-59 182 -189 182h-485z" />
    <glyph glyph-name="minus" unicode="&#x2212;" 
d="M87 647v140h839l1 -1v-139h-840z" />
    <glyph glyph-name="radical" unicode="&#x221a;" 
d="M181 0l-164 359l74 35l85 -185l728 1470h150v-60h-72z" />
    <glyph glyph-name="infinity" unicode="&#x221e;" 
d="M439 755q-15 103 -74 133q-46 22 -84 22q-12 0 -23 -2q-49 -10 -92.5 -44.5t-65.5 -84.5q-20 -46 -20 -90v-8q2 -48 27.5 -89t71.5 -58q29 -11 61 -11q16 0 33 3q47 10 90.5 43.5t75.5 185.5zM466 687q12 -96 94 -153q69 -48 123 -48q11 0 21 2q62 12 117.5 52t84.5 101
q26 54 26 108v11q-2 60 -35.5 108.5t-91.5 68.5q-37 13 -76 13q-22 0 -44 -4q-67 -9 -127 -62t-92 -197zM450 827q9 35 21 69q34 88 95 137t128 49t128 -48t95 -135t34 -182t-34 -182t-95 -135t-128 -48t-128 49t-95 136q-12 35 -21 70q-5 -21 -12 -41q-27 -73 -74 -113
t-99 -40t-100 41t-73.5 113.5t-25.5 149.5q0 76 25.5 149t73.5 114t100 41t99 -40t74 -112q7 -21 12 -42z" />
    <glyph glyph-name="integral" unicode="&#x222b;" horiz-adv-x="665" 
d="M-12 -281q-60 0 -60 29v159h36q1 -43 34.5 -64.5t63.5 -21.5h1q82 0 115 162q32 162 40 316l70 734l8 62q27 238 135 429.5t234 191.5q60 0 60 -29v-159h-36q-1 43 -35 64.5t-63 21.5q-71 0 -116 -155.5t-49 -363.5l-73 -767q-20 -231 -130.5 -420t-234.5 -189z" />
    <glyph glyph-name="approxequal" unicode="&#x2248;" 
d="M923 1053v-156q-63 -72 -122 -97.5t-116 -25.5q-60 0 -177.5 48.5t-176.5 48.5q-51 0 -107.5 -28t-129.5 -112v156q64 73 123 99t114 26q64 0 181.5 -49.5t172.5 -49.5q52 0 108.5 28t129.5 112zM923 705v-156q-63 -72 -122 -97.5t-116 -25.5q-60 0 -177.5 48.5
t-176.5 48.5q-51 0 -107.5 -28t-129.5 -112v156q64 73 123 99t114 26q64 0 181.5 -49.5t172.5 -49.5q52 0 108.5 28t129.5 112z" />
    <glyph glyph-name="lessequal" unicode="&#x2264;" 
d="M927 1074l-625 -359l625 -355v-167l-840 481v83l840 484v-167zM87 1v140h839l1 -1v-139h-840z" />
    <glyph glyph-name="greaterequal" unicode="&#x2265;" 
d="M87 1241l840 -484v-83l-840 -481v167l625 355l-625 359v167zM87 2v140h839l1 -1v-139h-840z" />
    <glyph glyph-name="heart" unicode="&#x2665;" horiz-adv-x="674" 
d="M471 730q72 -21 72 -176q0 -101 -116 -364q-16 -60 -44 -60q-16 0 -84 136l-124 184q-32 55 -32 128q23 144 92 144h4q53 -5 124 -128q7 0 24 68q46 61 84 68z" />
    <glyph glyph-name="uniF001" unicode="&#xf001;" horiz-adv-x="1073" 
 />
    <glyph glyph-name="uniF001" unicode="&#xfb01;" horiz-adv-x="1073" 
 />
    <glyph glyph-name="uniF002" unicode="&#xf002;" horiz-adv-x="1081" 
 />
    <glyph glyph-name="uniF002" unicode="&#xfb02;" horiz-adv-x="1081" 
 />
  </font>
</defs>
</svg>
